# Blender 5.2.0 LTS
# www.blender.org
mtllib base.mtl
o Base
v 5.706343 0.006818 -1.854103
v 4.854106 0.006818 -3.526713
v 3.526714 0.006817 -4.854105
v 1.854103 0.006817 -5.706342
v 0.000000 0.006817 -6.000002
v -1.854103 0.006817 -5.706341
v -3.526713 0.006817 -4.854104
v -4.854104 0.006818 -3.526712
v -5.706341 0.006818 -1.854102
v -6.000001 0.006818 0.000000
v -5.706341 0.006818 1.854103
v -4.854103 0.006818 3.526713
v -3.526712 0.006818 4.854103
v -1.854102 0.006818 5.706340
v -0.000000 0.006818 6.000002
v 1.854102 0.006818 5.706340
v 3.526711 0.006818 4.854103
v 4.854102 0.006818 3.526713
v 5.706340 0.006818 1.854102
v 6.000000 0.006818 0.000000
v 5.706343 0.187236 -1.854103
v 5.654231 0.232335 -1.837171
v 4.854106 0.187236 -3.526713
v 4.809777 0.232335 -3.494507
v 3.526714 0.187235 -4.854105
v 3.494507 0.232335 -4.809776
v 1.854103 0.187235 -5.706342
v 1.837171 0.232335 -5.654230
v 0.000000 0.187235 -6.000002
v 0.000000 0.232335 -5.945209
v -1.854103 0.187235 -5.706341
v -1.837171 0.232335 -5.654230
v -3.526713 0.187235 -4.854104
v -3.494506 0.232335 -4.809775
v -4.854104 0.187236 -3.526712
v -4.809775 0.232335 -3.494505
v -5.706341 0.187236 -1.854102
v -5.654229 0.232335 -1.837170
v -6.000001 0.187236 0.000000
v -5.945208 0.232335 0.000000
v -5.706341 0.187236 1.854103
v -5.654229 0.232335 1.837171
v -4.854103 0.187236 3.526713
v -4.809774 0.232335 3.494506
v -3.526712 0.187236 4.854103
v -3.494506 0.232335 4.809774
v -1.854102 0.187236 5.706340
v -1.837170 0.232336 5.654229
v -0.000000 0.187236 6.000002
v -0.000000 0.232336 5.945208
v 1.854102 0.187236 5.706340
v 1.837170 0.232336 5.654228
v 3.526711 0.187236 4.854103
v 3.494504 0.232335 4.809774
v 4.854102 0.187236 3.526713
v 4.809773 0.232335 3.494505
v 5.706340 0.187236 1.854102
v 5.654228 0.232335 1.837170
v 6.000000 0.187236 0.000000
v 5.945207 0.232335 0.000000
v 5.735299 0.257394 -1.863512
v 5.759525 0.187667 -1.871382
v 6.030446 0.257394 0.000000
v 6.055918 0.187667 -0.000000
v 5.650539 0.278695 -1.835971
v 5.941325 0.278695 0.000001
v 4.878737 0.257394 -3.544609
v 4.806639 0.278695 -3.492224
v 4.899344 0.187667 -3.559582
v 3.544610 0.257394 -4.878736
v 3.492225 0.278695 -4.806636
v 3.559583 0.187667 -4.899343
v 1.863512 0.257393 -5.735298
v 1.835972 0.278695 -5.650538
v 1.871383 0.187666 -5.759523
v -0.000001 0.257393 -6.030448
v -0.000001 0.278695 -5.941328
v -0.000001 0.187667 -6.055920
v -1.863511 0.257394 -5.735297
v -1.835971 0.278695 -5.650538
v -1.871382 0.187666 -5.759523
v -3.544611 0.257394 -4.878734
v -3.492225 0.278695 -4.806634
v -3.559581 0.187667 -4.899342
v -4.878736 0.257394 -3.544607
v -4.806635 0.278695 -3.492224
v -4.899343 0.187667 -3.559579
v -5.735294 0.257395 -1.863513
v -5.650537 0.278695 -1.835970
v -5.759522 0.187667 -1.871381
v -6.030447 0.257394 -0.000000
v -5.941327 0.278695 0.000002
v -6.055920 0.187667 0.000001
v -5.735296 0.257394 1.863511
v -5.650537 0.278695 1.835972
v -5.759522 0.187668 1.871382
v -4.878736 0.257394 3.544608
v -4.806636 0.278695 3.492222
v -4.899342 0.187668 3.559581
v -3.544607 0.257395 4.878735
v -3.492225 0.278695 4.806633
v -3.559582 0.187668 4.899341
v -1.863513 0.257395 5.735296
v -1.835971 0.278696 5.650537
v -1.871384 0.187668 5.759522
v -0.000001 0.257394 6.030447
v -0.000001 0.278696 5.941326
v -0.000001 0.187668 6.055919
v 1.863510 0.257394 5.735297
v 1.835969 0.278696 5.650537
v 1.871383 0.187668 5.759521
v 3.544607 0.257394 4.878736
v 3.492224 0.278695 4.806633
v 3.559581 0.187667 4.899341
v 4.878733 0.257394 3.544610
v 4.806633 0.278695 3.492224
v 4.899341 0.187667 3.559580
v 5.735295 0.257394 1.863508
v 5.650536 0.278695 1.835973
v 5.759521 0.187668 1.871382
v 4.342311 0.232335 -1.410902
v 3.693790 0.232335 -2.683695
v 2.683696 0.232335 -3.693790
v 1.410902 0.232335 -4.342310
v -0.000000 0.232335 -4.565775
v -1.410902 0.232335 -4.342309
v -2.683695 0.232335 -3.693789
v -3.693789 0.232335 -2.683694
v -4.342308 0.232335 -1.410901
v -4.565774 0.232335 0.000000
v -4.342308 0.232335 1.410901
v -3.693789 0.232335 2.683694
v -2.683694 0.232335 3.693789
v -1.410901 0.232335 4.342309
v -0.000000 0.232335 4.565774
v 1.410901 0.232335 4.342308
v 2.683693 0.232335 3.693789
v 3.693787 0.232335 2.683694
v 4.342308 0.232335 1.410901
v 4.565773 0.232335 0.000000
v 5.654231 0.232335 -1.837171
v 4.809777 0.232335 -3.494507
v 3.494507 0.232335 -4.809776
v 1.837171 0.232335 -5.654230
v 0.000000 0.232335 -5.945209
v -1.837171 0.232335 -5.654230
v -3.494506 0.232335 -4.809775
v -4.809775 0.232335 -3.494505
v -5.654229 0.232335 -1.837170
v -5.945208 0.232335 0.000000
v -5.654229 0.232335 1.837171
v -4.809774 0.232335 3.494506
v -3.494506 0.232335 4.809774
v -1.837170 0.232336 5.654229
v -0.000000 0.232336 5.945208
v 1.837170 0.232336 5.654228
v 3.494504 0.232335 4.809774
v 4.809773 0.232335 3.494505
v 5.654228 0.232335 1.837170
v 5.945207 0.232335 0.000000
vn 0.8090 -0.0000 -0.5878
vn 0.9511 -0.0000 -0.3090
vn 0.5878 -0.0000 -0.8090
vn 0.3090 -0.0000 -0.9511
vn -0.0000 -0.0000 -1.0000
vn -0.3090 -0.0000 -0.9511
vn -0.5878 -0.0000 -0.8090
vn -0.8090 -0.0000 -0.5878
vn -0.9511 -0.0000 -0.3090
vn -1.0000 -0.0000 -0.0000
vn -0.9511 -0.0000 0.3090
vn -0.8090 -0.0000 0.5878
vn -0.5878 -0.0000 0.8090
vn -0.3090 -0.0000 0.9511
vn -0.0000 -0.0000 1.0000
vn 0.3090 -0.0000 0.9511
vn 0.5878 -0.0000 0.8090
vn 0.8090 -0.0000 0.5878
vn 0.9511 -0.0000 0.3090
vn 1.0000 -0.0000 -0.0000
vn 0.8933 0.3431 -0.2903
vn 0.6531 0.7573 -0.0000
vn 0.9393 0.3431 -0.0000
vn 0.2211 0.9726 -0.0718
vn 0.6362 0.7270 -0.2585
vn 0.1881 0.9726 -0.1366
vn 0.7599 0.3431 -0.5521
vn 0.5830 0.7270 -0.3627
vn 0.1366 0.9726 -0.1881
vn 0.5521 0.3431 -0.7599
vn 0.4429 0.7270 -0.5247
vn 0.2018 0.7573 -0.6211
vn 0.0718 0.9726 -0.2211
vn 0.2903 0.3431 -0.8933
vn -0.0000 0.9726 -0.2325
vn 0.0492 0.7270 -0.6849
vn -0.2019 0.7570 -0.6214
vn -0.0718 0.9726 -0.2211
vn -0.2903 0.3431 -0.8933
vn -0.1366 0.9726 -0.1881
vn -0.5521 0.3431 -0.7599
vn -0.3627 0.7270 -0.5831
vn -0.1881 0.9726 -0.1366
vn -0.7599 0.3431 -0.5521
vn -0.5241 0.7270 -0.4436
vn -0.6211 0.7573 -0.2018
vn -0.2211 0.9726 -0.0718
vn -0.6531 0.7573 -0.0000
vn -0.2325 0.9726 -0.0000
vn -0.8933 0.3431 -0.2902
vn -0.6214 0.7570 0.2019
vn -0.2211 0.9726 0.0718
vn -0.9393 0.3431 -0.0000
vn -0.1881 0.9726 0.1366
vn -0.8933 0.3431 0.2903
vn -0.5828 0.7269 0.3631
vn -0.1366 0.9726 0.1881
vn -0.5521 0.3431 0.7599
vn -0.4424 0.7270 0.5251
vn -0.0718 0.9726 0.2211
vn -0.2903 0.3431 0.8933
vn -0.2590 0.7270 0.6359
vn -0.0000 0.7570 0.6534
vn -0.0000 0.9726 0.2325
vn -0.0000 0.3431 0.9393
vn 0.0718 0.9726 0.2211
vn 0.2903 0.3431 0.8933
vn 0.1633 0.7270 0.6669
vn 0.3839 0.7573 0.5284
vn 0.1366 0.9726 0.1881
vn 0.5288 0.7568 0.3842
vn 0.1881 0.9726 0.1366
vn 0.5521 0.3431 0.7599
vn 0.2211 0.9726 0.0718
vn 0.8933 0.3431 0.2903
vn 0.6362 0.7270 0.2585
vn 0.2325 0.9726 -0.0000
vn 0.0073 -1.0000 -0.0024
vn 0.0077 -1.0000 -0.0000
vn -0.9965 -0.0834 -0.0000
vn -0.9477 -0.0834 0.3079
vn -0.8062 -0.0834 0.5857
vn 0.0062 -1.0000 -0.0045
vn -0.5857 -0.0834 0.8062
vn 0.0045 -1.0000 -0.0062
vn -0.3079 -0.0834 0.9477
vn 0.0024 -1.0000 -0.0073
vn -0.0000 -0.0834 0.9965
vn -0.0000 -1.0000 -0.0077
vn 0.3079 -0.0834 0.9477
vn -0.0024 -1.0000 -0.0073
vn 0.5857 -0.0834 0.8062
vn -0.0045 -1.0000 -0.0062
vn 0.8062 -0.0834 0.5857
vn -0.0062 -1.0000 -0.0045
vn 0.9477 -0.0835 0.3079
vn -0.0073 -1.0000 -0.0024
vn 0.9965 -0.0834 -0.0000
vn -0.0077 -1.0000 -0.0000
vn 0.9477 -0.0834 -0.3079
vn 0.9477 -0.0835 -0.3079
vn -0.0073 -1.0000 0.0024
vn 0.8062 -0.0834 -0.5857
vn -0.0062 -1.0000 0.0045
vn 0.5857 -0.0834 -0.8062
vn -0.0045 -1.0000 0.0062
vn 0.3079 -0.0834 -0.9477
vn -0.0024 -1.0000 0.0073
vn -0.0000 -0.0835 -0.9965
vn -0.0000 -1.0000 0.0077
vn -0.3079 -0.0834 -0.9477
vn 0.0024 -1.0000 0.0073
vn -0.5857 -0.0834 -0.8062
vn 0.0045 -1.0000 0.0062
vn -0.8062 -0.0834 -0.5857
vn 0.0062 -1.0000 0.0045
vn -0.9477 -0.0834 -0.3079
vn 0.0073 -1.0000 0.0024
vn -0.0000 1.0000 -0.0000
vn -0.0000 0.3431 -0.9393
vn -0.7599 0.3431 0.5521
vn 0.7599 0.3431 0.5521
vt 0.447068 0.441619
vt 0.487636 0.437720
vt 0.487636 0.441619
vt 0.406501 0.441619
vt 0.447068 0.437720
vt 0.365934 0.441619
vt 0.406501 0.437720
vt 0.325367 0.441619
vt 0.365934 0.437720
vt 0.284800 0.441619
vt 0.325367 0.437720
vt 0.244233 0.441619
vt 0.284800 0.437720
vt 0.203666 0.441619
vt 0.244233 0.437720
vt 0.163099 0.441619
vt 0.203666 0.437720
vt 0.122532 0.441619
vt 0.163099 0.437720
vt 0.081965 0.441619
vt 0.122532 0.437720
vt 0.041398 0.441619
vt 0.081965 0.437720
vt 0.000831 0.441619
vt 0.041398 0.437720
vt 0.771605 0.441619
vt 0.812172 0.437720
vt 0.812172 0.441619
vt 0.731038 0.441619
vt 0.771605 0.437720
vt 0.690471 0.441619
vt 0.731038 0.437720
vt 0.649904 0.441619
vt 0.690471 0.437720
vt 0.609337 0.441619
vt 0.649904 0.437720
vt 0.568770 0.441619
vt 0.609337 0.437720
vt 0.528203 0.441619
vt 0.568770 0.437720
vt 0.528203 0.437720
vt 0.802971 0.364977
vt 0.855789 0.345556
vt 0.856780 0.347502
vt 0.802210 0.360161
vt 0.802630 0.362820
vt 0.747161 0.360152
vt 0.746397 0.364968
vt 0.746739 0.362811
vt 0.694808 0.343133
vt 0.692594 0.347477
vt 0.693586 0.345532
vt 0.648373 0.312673
vt 0.650277 0.310769
vt 0.646829 0.314216
vt 0.617927 0.266229
vt 0.615528 0.267451
vt 0.598265 0.214292
vt 0.600924 0.213871
vt 0.596108 0.214633
vt 0.600932 0.158822
vt 0.596117 0.158058
vt 0.598273 0.158401
vt 0.617951 0.106470
vt 0.613608 0.104255
vt 0.615553 0.105247
vt 0.648412 0.060035
vt 0.650315 0.061939
vt 0.693634 0.027190
vt 0.694856 0.029589
vt 0.646868 0.058491
vt 0.746792 0.009927
vt 0.747213 0.012586
vt 0.692643 0.025244
vt 0.802262 0.012594
vt 0.746452 0.007770
vt 0.802684 0.009935
vt 0.854614 0.029613
vt 0.856829 0.025269
vt 0.855837 0.027215
vt 0.899145 0.061977
vt 0.902594 0.058530
vt 0.901049 0.060074
vt 0.933895 0.105296
vt 0.931495 0.106518
vt 0.935841 0.104305
vt 0.948499 0.158875
vt 0.953315 0.158113
vt 0.951158 0.158454
vt 0.951149 0.214346
vt 0.948490 0.213924
vt 0.933870 0.267499
vt 0.931471 0.266276
vt 0.953306 0.214688
vt 0.899108 0.310807
vt 0.902555 0.314256
vt 0.901011 0.312711
vt 0.854567 0.343157
vt 0.745886 0.368481
vt 0.690242 0.352191
vt 0.691022 0.350660
vt 0.853950 0.341946
vt 0.801997 0.358818
vt 0.747373 0.358809
vt 0.803571 0.368476
vt 0.745617 0.370178
vt 0.695425 0.341922
vt 0.859212 0.352176
vt 0.803840 0.370173
vt 0.651239 0.309808
vt 0.905097 0.316734
vt 0.858431 0.350645
vt 0.619139 0.265612
vt 0.938999 0.270062
vt 0.906312 0.317949
vt 0.602267 0.213659
vt 0.958516 0.215467
vt 0.940530 0.270842
vt 0.602275 0.159035
vt 0.956819 0.215199
vt 0.958510 0.157245
vt 0.619163 0.107087
vt 0.938983 0.102654
vt 0.956813 0.157514
vt 0.651276 0.062901
vt 0.905072 0.055989
vt 0.940514 0.101874
vt 0.695473 0.030801
vt 0.858401 0.022086
vt 0.906287 0.054774
vt 0.747426 0.013929
vt 0.803538 0.004265
vt 0.859181 0.020555
vt 0.802049 0.013937
vt 0.745852 0.004271
vt 0.803806 0.002568
vt 0.853997 0.030825
vt 0.690212 0.020571
vt 0.745583 0.002574
vt 0.898184 0.062939
vt 0.690992 0.022102
vt 0.643111 0.054798
vt 0.930284 0.107135
vt 0.644327 0.056012
vt 0.608893 0.101904
vt 0.947156 0.159088
vt 0.592604 0.157547
vt 0.610425 0.102684
vt 0.947147 0.213711
vt 0.592609 0.215233
vt 0.590907 0.157279
vt 0.930260 0.265659
vt 0.610440 0.270093
vt 0.590912 0.215502
vt 0.898146 0.309845
vt 0.643136 0.317973
vt 0.608909 0.270873
vt 0.644351 0.316758
vt 0.384948 0.861709
vt 0.320486 0.889544
vt 0.341811 0.847693
vt 0.313934 0.959452
vt 0.357181 0.916205
vt 0.259438 0.987219
vt 0.287273 0.922757
vt 0.199030 0.996787
vt 0.245422 0.944081
vt 0.138621 0.987219
vt 0.199030 0.951429
vt 0.084126 0.959452
vt 0.152637 0.944081
vt 0.040878 0.916205
vt 0.110786 0.922757
vt 0.013111 0.861709
vt 0.077573 0.889544
vt 0.003543 0.801301
vt 0.056249 0.847693
vt 0.013111 0.740892
vt 0.048901 0.801301
vt 0.077573 0.713057
vt 0.056249 0.754908
vt 0.084126 0.643149
vt 0.040878 0.686396
vt 0.138621 0.615382
vt 0.110786 0.679844
vt 0.199030 0.605814
vt 0.152637 0.658520
vt 0.259438 0.615382
vt 0.199030 0.651172
vt 0.287273 0.679844
vt 0.245422 0.658520
vt 0.357181 0.686397
vt 0.313934 0.643149
vt 0.384948 0.740892
vt 0.320486 0.713057
vt 0.394516 0.801301
vt 0.341810 0.754908
vt 0.349158 0.801301
vt 0.000831 0.437720
vt 0.613582 0.268441
vt 0.803026 0.007778
vt 0.935815 0.268491
s 1
usemtl m_carousel
f 2/1/1 21/2/2 1/3/2
f 3/4/3 23/5/1 2/1/1
f 4/6/4 25/7/3 3/4/3
f 5/8/5 27/9/4 4/6/4
f 6/10/6 29/11/5 5/8/5
f 7/12/7 31/13/6 6/10/6
f 8/14/8 33/15/7 7/12/7
f 9/16/9 35/17/8 8/14/8
f 10/18/10 37/19/9 9/16/9
f 11/20/11 39/21/10 10/18/10
f 12/22/12 41/23/11 11/20/11
f 13/24/13 43/25/12 12/22/12
f 14/26/14 45/27/13 13/28/13
f 15/29/15 47/30/14 14/26/14
f 16/31/16 49/32/15 15/29/15
f 17/33/17 51/34/16 16/31/16
f 18/35/18 53/36/17 17/33/17
f 19/37/19 55/38/18 18/35/18
f 20/39/20 57/40/19 19/37/19
f 1/3/2 59/41/20 20/39/20
f 62/42/21 63/43/22 64/44/23
f 65/45/24 63/43/22 61/46/25
f 61/46/25 68/47/26 65/45/24
f 61/46/25 69/48/27 67/49/28
f 67/49/28 71/50/29 68/47/26
f 67/49/28 72/51/30 70/52/31
f 71/50/29 73/53/32 74/54/33
f 70/52/31 75/55/34 73/53/32
f 73/53/32 77/56/35 74/54/33
f 75/55/34 76/57/36 73/53/32
f 77/56/35 79/58/37 80/59/38
f 76/57/36 81/60/39 79/58/37
f 79/58/37 83/61/40 80/59/38
f 79/58/37 84/62/41 82/63/42
f 82/63/42 86/64/43 83/61/40
f 82/63/42 87/65/44 85/66/45
f 86/64/43 88/67/46 89/68/47
f 87/65/44 88/67/46 85/66/45
f 89/68/47 91/69/48 92/70/49
f 90/71/50 91/69/48 88/67/46
f 92/70/49 94/72/51 95/73/52
f 93/74/53 94/72/51 91/69/48
f 94/72/51 98/75/54 95/73/52
f 96/76/55 97/77/56 94/72/51
f 97/77/56 101/78/57 98/75/54
f 97/77/56 102/79/58 100/80/59
f 100/80/59 104/81/60 101/78/57
f 100/80/59 105/82/61 103/83/62
f 104/81/60 106/84/63 107/85/64
f 103/83/62 108/86/65 106/84/63
f 106/84/63 110/87/66 107/85/64
f 106/84/63 111/88/67 109/89/68
f 110/87/66 112/90/69 113/91/70
f 111/88/67 112/90/69 109/89/68
f 113/91/70 115/92/71 116/93/72
f 114/94/73 115/92/71 112/90/69
f 115/92/71 119/95/74 116/93/72
f 115/92/71 120/96/75 118/97/76
f 118/97/76 66/98/77 119/95/74
f 118/97/76 64/44/23 63/43/22
f 21/99/78 64/100/79 59/101/79
f 60/102/80 65/45/81 22/103/81
f 22/103/81 68/47/82 24/104/82
f 23/105/83 62/106/78 21/99/78
f 24/104/82 71/50/84 26/107/84
f 23/105/83 72/108/85 69/109/83
f 28/110/86 71/50/84 74/54/86
f 27/111/87 72/108/85 25/112/85
f 28/110/86 77/56/88 30/113/88
f 29/114/89 75/115/87 27/111/87
f 32/116/90 77/56/88 80/59/90
f 29/114/89 81/117/91 78/118/89
f 34/119/92 80/59/90 83/61/92
f 31/120/91 84/121/93 81/117/91
f 36/122/94 83/61/92 86/64/94
f 35/123/95 84/121/93 33/124/93
f 36/122/94 89/68/96 38/125/96
f 37/126/97 87/127/95 35/123/95
f 40/128/98 89/68/96 92/70/98
f 39/129/99 90/130/97 37/126/97
f 42/131/100 92/70/98 95/73/101
f 41/132/102 93/133/99 39/129/99
f 42/131/100 98/75/103 44/134/103
f 43/135/104 96/136/102 41/132/102
f 44/134/103 101/78/105 46/137/105
f 43/135/104 102/138/106 99/139/104
f 46/137/105 104/81/107 48/140/107
f 45/141/106 105/142/108 102/138/106
f 48/140/107 107/85/109 50/143/109
f 47/144/108 108/145/110 105/142/108
f 50/143/109 110/87/111 52/146/111
f 51/147/112 108/145/110 49/148/110
f 54/149/113 110/87/111 113/91/113
f 53/150/114 111/151/112 51/147/112
f 56/152/115 113/91/113 116/93/115
f 55/153/116 114/154/114 53/150/114
f 56/152/115 119/95/117 58/155/117
f 55/153/116 120/156/118 117/157/116
f 58/155/117 66/98/80 60/102/80
f 59/101/79 120/156/118 57/158/118
f 141/159/119 122/160/119 121/161/119
f 143/162/119 122/160/119 142/163/119
f 144/164/119 123/165/119 143/162/119
f 145/166/119 124/167/119 144/164/119
f 146/168/119 125/169/119 145/166/119
f 147/170/119 126/171/119 146/168/119
f 148/172/119 127/173/119 147/170/119
f 149/174/119 128/175/119 148/172/119
f 150/176/119 129/177/119 149/174/119
f 151/178/119 130/179/119 150/176/119
f 151/178/119 132/180/119 131/181/119
f 153/182/119 132/180/119 152/183/119
f 154/184/119 133/185/119 153/182/119
f 155/186/119 134/187/119 154/184/119
f 156/188/119 135/189/119 155/186/119
f 156/188/119 137/190/119 136/191/119
f 158/192/119 137/190/119 157/193/119
f 159/194/119 138/195/119 158/192/119
f 160/196/119 139/197/119 159/194/119
f 160/196/119 121/161/119 140/198/119
f 2/1/1 23/5/1 21/2/2
f 3/4/3 25/7/3 23/5/1
f 4/6/4 27/9/4 25/7/3
f 5/8/5 29/11/5 27/9/4
f 6/10/6 31/13/6 29/11/5
f 7/12/7 33/15/7 31/13/6
f 8/14/8 35/17/8 33/15/7
f 9/16/9 37/19/9 35/17/8
f 10/18/10 39/21/10 37/19/9
f 11/20/11 41/23/11 39/21/10
f 12/22/12 43/25/12 41/23/11
f 13/24/13 45/199/13 43/25/12
f 14/26/14 47/30/14 45/27/13
f 15/29/15 49/32/15 47/30/14
f 16/31/16 51/34/16 49/32/15
f 17/33/17 53/36/17 51/34/16
f 18/35/18 55/38/18 53/36/17
f 19/37/19 57/40/19 55/38/18
f 20/39/20 59/41/20 57/40/19
f 1/3/2 21/2/2 59/41/20
f 62/42/21 61/46/25 63/43/22
f 65/45/24 66/98/77 63/43/22
f 61/46/25 67/49/28 68/47/26
f 61/46/25 62/42/21 69/48/27
f 67/49/28 70/52/31 71/50/29
f 67/49/28 69/48/27 72/51/30
f 71/50/29 70/52/31 73/53/32
f 70/52/31 72/51/30 75/55/34
f 73/53/32 76/57/36 77/56/35
f 75/55/34 78/200/120 76/57/36
f 77/56/35 76/57/36 79/58/37
f 76/57/36 78/200/120 81/60/39
f 79/58/37 82/63/42 83/61/40
f 79/58/37 81/60/39 84/62/41
f 82/63/42 85/66/45 86/64/43
f 82/63/42 84/62/41 87/65/44
f 86/64/43 85/66/45 88/67/46
f 87/65/44 90/71/50 88/67/46
f 89/68/47 88/67/46 91/69/48
f 90/71/50 93/74/53 91/69/48
f 92/70/49 91/69/48 94/72/51
f 93/74/53 96/76/55 94/72/51
f 94/72/51 97/77/56 98/75/54
f 96/76/55 99/201/121 97/77/56
f 97/77/56 100/80/59 101/78/57
f 97/77/56 99/201/121 102/79/58
f 100/80/59 103/83/62 104/81/60
f 100/80/59 102/79/58 105/82/61
f 104/81/60 103/83/62 106/84/63
f 103/83/62 105/82/61 108/86/65
f 106/84/63 109/89/68 110/87/66
f 106/84/63 108/86/65 111/88/67
f 110/87/66 109/89/68 112/90/69
f 111/88/67 114/94/73 112/90/69
f 113/91/70 112/90/69 115/92/71
f 114/94/73 117/202/122 115/92/71
f 115/92/71 118/97/76 119/95/74
f 115/92/71 117/202/122 120/96/75
f 118/97/76 63/43/22 66/98/77
f 118/97/76 120/96/75 64/44/23
f 21/99/78 62/106/78 64/100/79
f 60/102/80 66/98/80 65/45/81
f 22/103/81 65/45/81 68/47/82
f 23/105/83 69/109/83 62/106/78
f 24/104/82 68/47/82 71/50/84
f 23/105/83 25/112/85 72/108/85
f 28/110/86 26/107/84 71/50/84
f 27/111/87 75/115/87 72/108/85
f 28/110/86 74/54/86 77/56/88
f 29/114/89 78/118/89 75/115/87
f 32/116/90 30/113/88 77/56/88
f 29/114/89 31/120/91 81/117/91
f 34/119/92 32/116/90 80/59/90
f 31/120/91 33/124/93 84/121/93
f 36/122/94 34/119/92 83/61/92
f 35/123/95 87/127/95 84/121/93
f 36/122/94 86/64/94 89/68/96
f 37/126/97 90/130/97 87/127/95
f 40/128/98 38/125/96 89/68/96
f 39/129/99 93/133/99 90/130/97
f 42/131/100 40/128/98 92/70/98
f 41/132/102 96/136/102 93/133/99
f 42/131/100 95/73/101 98/75/103
f 43/135/104 99/139/104 96/136/102
f 44/134/103 98/75/103 101/78/105
f 43/135/104 45/141/106 102/138/106
f 46/137/105 101/78/105 104/81/107
f 45/141/106 47/144/108 105/142/108
f 48/140/107 104/81/107 107/85/109
f 47/144/108 49/148/110 108/145/110
f 50/143/109 107/85/109 110/87/111
f 51/147/112 111/151/112 108/145/110
f 54/149/113 52/146/111 110/87/111
f 53/150/114 114/154/114 111/151/112
f 56/152/115 54/149/113 113/91/113
f 55/153/116 117/157/116 114/154/114
f 56/152/115 116/93/115 119/95/117
f 55/153/116 57/158/118 120/156/118
f 58/155/117 119/95/117 66/98/80
f 59/101/79 64/100/79 120/156/118
f 141/159/119 142/163/119 122/160/119
f 143/162/119 123/165/119 122/160/119
f 144/164/119 124/167/119 123/165/119
f 145/166/119 125/169/119 124/167/119
f 146/168/119 126/171/119 125/169/119
f 147/170/119 127/173/119 126/171/119
f 148/172/119 128/175/119 127/173/119
f 149/174/119 129/177/119 128/175/119
f 150/176/119 130/179/119 129/177/119
f 151/178/119 131/181/119 130/179/119
f 151/178/119 152/183/119 132/180/119
f 153/182/119 133/185/119 132/180/119
f 154/184/119 134/187/119 133/185/119
f 155/186/119 135/189/119 134/187/119
f 156/188/119 136/191/119 135/189/119
f 156/188/119 157/193/119 137/190/119
f 158/192/119 138/195/119 137/190/119
f 159/194/119 139/197/119 138/195/119
f 160/196/119 140/198/119 139/197/119
f 160/196/119 141/159/119 121/161/119
