# Blender 5.2.0 LTS
# www.blender.org
mtllib pirateRide.mtl
o Boat
v -0.914976 4.982985 0.439465
v -1.057333 5.553477 0.439465
v -0.914976 4.982985 -0.439466
v -1.057333 5.553477 -0.439466
v -0.036046 4.982985 0.439465
v 0.082584 5.529751 0.439465
v -0.036046 4.982985 -0.439466
v 0.082584 5.529751 -0.439466
v -6.149972 2.615208 1.163309
v -7.247241 3.998644 1.163309
v -6.149972 2.615208 -1.285792
v -7.247241 3.998644 -1.285792
v 6.008840 2.422805 0.673381
v 6.090893 3.134405 0.673381
v 6.019781 2.422805 -0.686992
v 6.101833 3.134405 -0.686992
v -6.149972 2.615208 -0.000001
v -7.247241 3.998644 -0.000001
v 6.019781 2.422805 -0.000001
v 6.101833 3.134405 -0.000001
v 0.635089 0.651534 -1.285792
v 0.636366 2.228217 -1.285792
v 0.635089 0.651534 1.163309
v 0.636366 2.228217 1.163309
v 0.636366 2.228217 -0.000001
v 0.635089 0.651534 -0.000001
v -1.881224 0.795376 -1.285792
v -1.881224 0.795376 -0.000001
v -1.881224 0.795376 1.163309
v 3.086078 2.475944 -1.285792
v 3.086078 0.942354 1.163309
v 3.086078 2.475944 -0.000001
v 3.086078 0.942354 -1.285792
v 3.086078 2.475944 1.163309
v 3.086078 0.942354 -0.000001
v -3.662606 1.167067 -1.285792
v -3.662606 1.167067 -0.000001
v -3.662606 1.167067 1.163309
v 4.820848 2.998696 -1.285792
v 5.257437 1.764778 1.163309
v 4.820848 2.998696 -0.000001
v 5.257437 1.764779 -1.285792
v 4.820848 2.998696 1.163309
v 5.257437 1.764779 -0.000001
v -5.204665 1.722991 -1.285792
v -4.687924 3.014414 1.163309
v -5.204665 1.722991 -0.000001
v -4.687924 3.014414 -1.285792
v -5.204665 1.722991 1.163309
v -4.687924 3.014414 -0.000001
v -3.401507 1.732627 -1.285792
v -3.401507 2.478033 -1.285792
v -3.567559 1.732627 -1.285792
v -3.745739 2.500518 -1.285792
v -3.745739 1.732627 -1.285792
v -3.401507 2.478033 -0.000001
v -3.401507 2.478033 1.163309
v -3.567559 1.732627 1.163309
v -3.401507 1.732627 1.163309
v -3.745739 2.500518 -0.000001
v -3.745739 2.500518 1.163309
v -3.745739 1.732627 1.163309
v -2.823061 2.412939 -1.285792
v -2.478829 1.654241 -1.285792
v -2.478829 2.385319 -1.285792
v -2.823061 1.654241 -1.285792
v -2.478829 2.385319 -0.000001
v -2.823061 2.412939 -0.000001
v -2.823061 2.412939 1.163309
v -2.478829 2.385319 1.163309
v -2.823061 1.654241 1.163309
v -2.478829 1.654241 1.163309
v -1.848151 1.588335 -1.285792
v -1.539674 1.588335 -1.285792
v -1.540992 2.311630 -1.285792
v -1.883906 1.588335 -1.285792
v -1.883906 2.372509 -1.285792
v -1.540992 2.311630 -0.000001
v -1.540992 2.311630 1.163309
v -1.539674 1.588335 1.163309
v -1.848151 1.588335 1.163309
v -1.883906 2.372509 -0.000001
v -1.883906 2.372509 1.163309
v -1.883906 1.588335 1.163309
v -0.962547 2.293099 -1.285792
v -0.620100 2.226328 -1.285792
v -0.961228 1.505953 -1.285792
v -0.616996 1.505953 -1.285792
v -0.620100 2.226328 -0.000001
v -0.962547 2.293099 -0.000001
v -0.962547 2.293099 1.163309
v -0.620100 2.226328 1.163309
v -0.616996 1.505953 1.163309
v -0.961228 1.505953 1.163309
v 0.059813 2.178036 -1.285792
v -0.288800 2.215714 -1.285792
v -0.285696 1.423571 -1.285792
v 0.058537 1.423571 -1.285792
v 0.059813 2.178036 -0.000001
v -0.288800 2.215714 -0.000001
v -0.288800 2.215714 1.163309
v 0.059813 2.178036 1.163309
v 0.058537 1.423571 1.163309
v -0.285696 1.423571 1.163309
v 0.942086 2.270393 -1.285792
v 0.638259 2.228366 -1.285792
v 0.638259 2.228366 -0.000001
v 0.942086 2.270393 -0.000001
v 0.638259 2.228366 1.163309
v 0.942086 2.270393 1.163309
v 0.636982 1.505953 1.163309
v 0.981214 1.505953 1.163309
v 0.636982 1.505953 -1.285792
v 0.981214 1.505953 -1.285792
v 1.561723 2.329633 -0.000001
v 1.907029 2.343070 -0.000001
v 1.907029 2.343070 -1.285792
v 1.561723 2.329633 -1.285792
v 1.561723 2.329633 1.163309
v 1.907029 2.343070 1.163309
v 1.903893 1.555382 1.163309
v 1.559660 1.555382 1.163309
v 1.903893 1.555382 -1.285792
v 1.559660 1.555382 -1.285792
v 2.485475 2.388580 -0.000001
v 2.826571 2.455527 -0.000001
v 2.826571 2.455527 -1.285792
v 2.485475 2.388580 -1.285792
v 2.485475 2.388580 1.163309
v 2.826571 2.455527 1.163309
v 2.826571 1.637764 1.163309
v 2.482339 1.637764 1.163309
v 2.826571 1.637764 -1.285792
v 2.482339 1.637764 -1.285792
v 3.388540 2.484705 1.163309
v 3.732772 2.506053 1.163309
v 3.388540 1.736623 1.163309
v 3.732772 1.736623 1.163309
v 3.732772 2.506053 -0.000001
v 3.388540 2.484705 -0.000001
v 3.732772 2.506053 -1.285792
v 3.388540 2.484705 -1.285792
v 3.388540 1.736623 -1.285792
v 3.732772 1.736623 -1.285792
v -0.443876 2.081446 -0.147723
v -0.443876 11.847837 -0.147723
v -0.383792 2.081446 -0.134952
v -0.383792 11.847837 -0.134952
v -0.334097 2.081446 -0.098846
v -0.334097 11.847837 -0.098846
v -0.303384 2.081446 -0.045649
v -0.303384 11.847837 -0.045649
v -0.296963 2.081446 0.015441
v -0.296963 11.847837 0.015441
v -0.315945 2.081446 0.073861
v -0.315945 11.847837 0.073861
v -0.357047 2.081446 0.119509
v -0.357047 11.847837 0.119509
v -0.413163 2.081446 0.144494
v -0.413163 11.847837 0.144494
v -0.474590 2.081446 0.144494
v -0.474590 11.847837 0.144494
v -0.530705 2.081446 0.119509
v -0.530705 11.847837 0.119509
v -0.571808 2.081446 0.073861
v -0.571808 11.847837 0.073861
v -0.590789 2.081446 0.015441
v -0.590789 11.847837 0.015441
v -0.584369 2.081446 -0.045649
v -0.584369 11.847837 -0.045649
v -0.553655 2.081446 -0.098846
v -0.553655 11.847837 -0.098846
v -0.503960 2.081446 -0.134952
v -0.503960 11.847837 -0.134952
v -0.364681 11.836754 -0.095459
v 0.433432 11.394484 -0.095459
v -0.364681 11.354284 -0.095459
v -0.006167 11.370762 -0.095459
v -0.364681 11.836754 0.043846
v 0.433432 11.394484 0.043846
v -0.006167 11.370762 0.043846
v -0.364681 11.354284 0.043846
v -5.546284 3.224952 0.931669
v -0.262038 14.679421 0.931669
v -5.546285 3.224952 0.760734
v -0.262038 14.679421 0.760734
v -5.398484 3.156769 0.931669
v -0.114239 14.611238 0.931668
v -5.398484 3.156769 0.760734
v -0.114239 14.611238 0.760734
v -5.546285 3.224952 -1.068331
v -0.262039 14.679421 -1.068331
v -5.546285 3.224952 -0.897397
v -0.262038 14.679421 -0.897397
v -5.398484 3.156769 -1.068331
v -0.114239 14.611238 -1.068332
v -5.398484 3.156769 -0.897397
v -0.114239 14.611238 -0.897397
v 4.481260 2.461205 0.946915
v -0.088008 14.634664 0.946915
v 4.481260 2.461205 0.775980
v -0.088008 14.634664 0.775980
v 4.642827 2.441455 0.946915
v 0.073559 14.614914 0.946915
v 4.642827 2.441455 0.775980
v 0.073559 14.614914 0.775980
v 4.481260 2.461205 -1.053085
v -0.088008 14.634664 -1.053085
v 4.481260 2.461205 -0.882150
v -0.088008 14.634664 -0.882150
v 4.642827 2.441456 -1.053085
v 0.073559 14.614914 -1.053085
v 4.642827 2.441456 -0.882150
v 0.073559 14.614914 -0.882150
vn -0.6451 0.5148 0.5647
vn -0.4964 -0.6355 -0.5913
vn -0.4964 -0.6356 0.5913
vn 0.6461 0.5099 -0.5679
vn 0.5070 -0.6289 -0.5894
vn 0.5071 -0.6289 0.5894
vn 0.6461 0.5100 0.5679
vn -0.6451 0.5148 -0.5647
vn -0.7835 -0.6214 -0.0000
vn 0.5072 0.1795 -0.8429
vn 0.9933 -0.1145 0.0161
vn -0.0000 -0.0000 1.0000
vn 0.6588 -0.7523 -0.0000
vn 0.3589 0.9334 -0.0000
vn 0.6534 -0.7570 -0.0000
vn 0.9934 -0.1145 -0.0000
vn -0.0571 -0.9984 -0.0000
vn -0.0785 0.9969 -0.0000
vn -0.0784 0.9969 -0.0000
vn -0.0952 0.9955 -0.0000
vn -0.0787 0.9969 -0.0000
vn -0.0000 -0.0000 -1.0000
vn -0.2043 -0.9789 -0.0000
vn 0.0320 0.9995 -0.0000
vn -0.0867 0.9962 -0.0000
vn -0.0290 0.9996 -0.0000
vn -0.4125 0.9110 -0.0000
vn 0.1178 -0.9930 -0.0000
vn -0.3391 -0.9407 -0.0000
vn 0.1118 0.9937 -0.0000
vn 0.0215 0.9998 -0.0000
vn -0.1054 0.9944 -0.0000
vn -0.1054 0.9944 -0.0017
vn 0.4402 0.1557 0.8843
vn 0.3542 -0.9352 -0.0000
vn -0.6864 -0.7272 -0.0000
vn 0.4788 0.8779 -0.0000
vn 1.0000 -0.0000 -0.0000
vn -1.0000 -0.0000 -0.0000
vn -0.0000 1.0000 -0.0000
vn -1.0000 -0.0018 -0.0000
vn 1.0000 0.0017 -0.0000
vn -1.0000 -0.0043 -0.0000
vn 1.0000 0.0039 -0.0000
vn -1.0000 0.0017 -0.0000
vn 1.0000 -0.0018 -0.0000
vn -0.9987 -0.0511 -0.0000
vn 1.0000 -0.0027 -0.0000
vn -1.0000 0.0040 -0.0000
vn 1.0000 -0.0042 -0.0000
vn 0.2079 -0.0000 -0.9781
vn 0.5878 -0.0000 -0.8090
vn 0.8660 -0.0000 -0.5000
vn 0.9945 -0.0000 -0.1045
vn 0.9511 -0.0000 0.3090
vn 0.7431 -0.0000 0.6691
vn 0.4067 -0.0000 0.9135
vn -0.4067 -0.0000 0.9135
vn -0.7431 -0.0000 0.6691
vn -0.9511 -0.0000 0.3090
vn -0.9945 -0.0000 -0.1045
vn -0.8660 -0.0000 -0.5000
vn -0.5878 -0.0000 -0.8090
vn -0.2079 -0.0000 -0.9781
vn -0.0000 -1.0000 -0.0000
vn -0.4847 -0.8747 -0.0000
vn -0.0539 0.9985 -0.0000
vn -0.0459 0.9989 -0.0000
vn -0.9080 0.4189 -0.0000
vn 0.9080 -0.4189 -0.0000
vn -0.4189 -0.9080 -0.0000
vn 0.4189 0.9080 -0.0000
vn -0.9362 -0.3514 -0.0000
vn 0.9362 0.3514 -0.0000
vn -0.1213 -0.9926 -0.0000
vn 0.1213 0.9926 -0.0000
vn 0.4272 -0.0493 -0.9028
vn 0.6534 -0.7570 0.0106
vn -0.1062 0.9943 -0.0000
vn 0.3635 -0.0419 0.9307
vn -0.0001 1.0000 -0.0000
vn 0.0001 1.0000 -0.0000
vt 0.625000 0.000000
vt 0.375000 0.250000
vt 0.375000 0.000000
vt 0.625000 0.500000
vt 0.375000 0.500000
vt 0.375000 0.750000
vt 0.625000 0.750000
vt 0.375000 1.000000
vt 0.125000 0.750000
vt 0.125000 0.500000
vt 0.875000 0.500000
vt 0.625000 0.125000
vt 0.375000 0.125000
vt 0.625000 0.468750
vt 0.375000 0.468750
vt 0.375000 0.625000
vt 0.625000 0.984375
vt 0.375000 0.984375
vt 0.343750 0.625000
vt 0.343750 0.750000
vt 0.875000 0.625000
vt 0.859375 0.750000
vt 0.859375 0.625000
vt 0.859375 0.500000
vt 0.343750 0.500000
vt 0.250000 0.500000
vt 0.187500 0.625000
vt 0.187500 0.500000
vt 0.750000 0.625000
vt 0.749952 0.500000
vt 0.750000 0.500000
vt 0.687500 0.625000
vt 0.694117 0.500000
vt 0.694117 0.625000
vt 0.717646 0.625000
vt 0.702895 0.500000
vt 0.717646 0.500000
vt 0.741174 0.625000
vt 0.726423 0.500000
vt 0.741174 0.500000
vt 0.750000 0.750000
vt 0.749952 0.625000
vt 0.717646 0.750000
vt 0.702895 0.625000
vt 0.717646 0.625000
vt 0.687500 0.750000
vt 0.694117 0.750000
vt 0.741174 0.750000
vt 0.726424 0.625000
vt 0.741174 0.625000
vt 0.250000 0.625000
vt 0.187500 0.750000
vt 0.375000 0.812500
vt 0.498043 0.827895
vt 0.494002 0.842646
vt 0.375000 0.375000
vt 0.494783 0.334862
vt 0.486703 0.351877
vt 0.500497 0.311850
vt 0.375000 0.312500
vt 0.482693 0.294752
vt 0.156250 0.750000
vt 0.156250 0.625000
vt 0.156250 0.500000
vt 0.805456 0.500000
vt 0.790706 0.625000
vt 0.790706 0.500000
vt 0.781928 0.500000
vt 0.773480 0.625000
vt 0.773480 0.500000
vt 0.764702 0.625000
vt 0.805456 0.750000
vt 0.805456 0.625000
vt 0.764702 0.625000
vt 0.764702 0.750000
vt 0.781928 0.750000
vt 0.773480 0.625000
vt 0.781928 0.625000
vt 0.494783 0.915138
vt 0.503751 0.929748
vt 0.375000 0.875000
vt 0.466752 0.802561
vt 0.487003 0.807803
vt 0.682051 0.625000
vt 0.656250 0.750000
vt 0.675851 0.625000
vt 0.675851 0.750000
vt 0.682051 0.500000
vt 0.687500 0.500000
vt 0.656250 0.625000
vt 0.675850 0.500000
vt 0.312500 0.500000
vt 0.312500 0.625000
vt 0.250000 0.750000
vt 0.375000 0.437500
vt 0.500600 0.383826
vt 0.494002 0.407354
vt 0.140625 0.625000
vt 0.140625 0.500000
vt 0.140625 0.750000
vt 0.462436 0.279259
vt 0.375000 0.281250
vt 0.625000 0.265625
vt 0.843414 0.500000
vt 0.832136 0.625000
vt 0.832136 0.500000
vt 0.825425 0.625000
vt 0.813826 0.500000
vt 0.825425 0.500000
vt 0.843414 0.750000
vt 0.843414 0.625000
vt 0.813826 0.750000
vt 0.813826 0.625000
vt 0.375000 0.968750
vt 0.501570 0.937500
vt 0.500497 0.938150
vt 0.625000 0.625000
vt 0.625000 0.781250
vt 0.375000 0.781250
vt 0.312500 0.750000
vt 0.487003 0.442197
vt 0.466752 0.447439
vt 0.375000 0.265625
vt 0.125000 0.625000
vt 0.847776 0.625000
vt 0.847776 0.500000
vt 0.847776 0.750000
vt 0.462436 0.970741
vt 0.375000 0.052236
vt 0.597725 0.200851
vt 0.597725 0.122827
vt 0.574075 0.697764
vt 0.574075 0.627172
vt 0.375000 0.549149
vt 0.254404 0.549149
vt 0.254404 0.697764
vt 0.375000 0.549149
vt 0.570879 0.200851
vt 0.570879 0.122827
vt 0.558457 0.627173
vt 0.375000 0.697764
vt 0.125000 0.697764
vt 0.375000 0.200851
vt 0.551852 0.122827
vt 0.551852 0.052236
vt 0.547402 0.627173
vt 0.150967 0.549149
vt 0.150967 0.697764
vt 0.561802 0.200851
vt 0.561802 0.122827
vt 0.559315 0.697764
vt 0.559315 0.627172
vt 0.575501 0.122827
vt 0.575501 0.052236
vt 0.573014 0.627173
vt 0.550303 0.122827
vt 0.550303 0.052236
vt 0.556411 0.697764
vt 0.556411 0.627173
vt 0.125000 0.549149
vt 0.555527 0.122827
vt 0.555527 0.052236
vt 0.561635 0.697764
vt 0.561635 0.627173
vt 0.553319 0.200851
vt 0.553319 0.122827
vt 0.559427 0.697764
vt 0.559427 0.627173
vt 0.562292 0.200851
vt 0.562292 0.122827
vt 0.585686 0.627173
vt 0.585686 0.549149
vt 1.000000 1.000000
vt 0.933333 0.500000
vt 1.000000 0.500000
vt 0.933333 1.000000
vt 0.866667 0.500000
vt 0.866667 1.000000
vt 0.800000 0.500000
vt 0.800000 1.000000
vt 0.733333 0.500000
vt 0.733333 1.000000
vt 0.666667 0.500000
vt 0.666667 1.000000
vt 0.600000 0.500000
vt 0.600000 1.000000
vt 0.533333 0.500000
vt 0.533333 1.000000
vt 0.466667 0.500000
vt 0.466667 1.000000
vt 0.400000 0.500000
vt 0.400000 1.000000
vt 0.333333 0.500000
vt 0.333333 1.000000
vt 0.266667 0.500000
vt 0.266667 1.000000
vt 0.200000 0.500000
vt 0.200000 1.000000
vt 0.133333 0.500000
vt 0.011315 0.224913
vt 0.299899 0.015245
vt 0.478254 0.324164
vt 0.133333 1.000000
vt 0.066667 0.500000
vt 0.066667 1.000000
vt 0.000000 0.500000
vt 0.957846 0.130000
vt 0.608932 0.055836
vt 0.571645 0.410591
vt 0.000000 0.000000
vt 0.000000 1.000000
vt 1.000000 0.000000
vt 0.625000 0.250000
vt 0.875000 0.750000
vt 0.625000 1.000000
vt 0.749952 0.625000
vt 0.702895 0.625000
vt 0.726424 0.625000
vt 0.749952 0.750000
vt 0.702895 0.750000
vt 0.726424 0.750000
vt 0.499412 0.851424
vt 0.625000 0.851424
vt 0.625000 0.866174
vt 0.500600 0.866174
vt 0.625000 0.827895
vt 0.625000 0.842646
vt 0.505890 0.874952
vt 0.625000 0.874952
vt 0.625000 0.875000
vt 0.625000 0.812500
vt 0.625000 0.819117
vt 0.492528 0.819117
vt 0.489195 0.360516
vt 0.625000 0.360298
vt 0.625000 0.375000
vt 0.501570 0.312500
vt 0.503751 0.320251
vt 0.625000 0.319544
vt 0.625000 0.334294
vt 0.625000 0.343072
vt 0.625000 0.351520
vt 0.497230 0.343509
vt 0.472441 0.281250
vt 0.477625 0.284215
vt 0.625000 0.281586
vt 0.625000 0.292864
vt 0.625000 0.299575
vt 0.625000 0.311174
vt 0.493210 0.300958
vt 0.805456 0.625000
vt 0.781928 0.625000
vt 0.764702 0.500000
vt 0.790706 0.750000
vt 0.773480 0.750000
vt 0.486703 0.898123
vt 0.625000 0.898480
vt 0.625000 0.906928
vt 0.497230 0.906491
vt 0.625000 0.889702
vt 0.489195 0.889484
vt 0.375000 0.937500
vt 0.625000 0.915706
vt 0.625000 0.930456
vt 0.625000 0.807051
vt 0.625000 0.800851
vt 0.682052 0.750000
vt 0.682051 0.625000
vt 0.656250 0.500000
vt 0.492528 0.430882
vt 0.625000 0.430883
vt 0.625000 0.437500
vt 0.625000 0.375048
vt 0.505890 0.375048
vt 0.625000 0.407354
vt 0.625000 0.422105
vt 0.498043 0.422105
vt 0.625000 0.383826
vt 0.625000 0.398576
vt 0.499412 0.398576
vt 0.625000 0.277224
vt 0.832136 0.750000
vt 0.825425 0.750000
vt 0.482693 0.955248
vt 0.625000 0.957136
vt 0.625000 0.968414
vt 0.477625 0.965785
vt 0.472441 0.968750
vt 0.625000 0.938826
vt 0.625000 0.950425
vt 0.493210 0.949042
vt 0.625000 0.449149
vt 0.625000 0.442948
vt 0.625000 0.972776
vt 0.597725 0.052236
vt 0.574075 0.549149
vt 0.570879 0.052236
vt 0.558457 0.697764
vt 0.558457 0.549149
vt 0.551852 0.200851
vt 0.547402 0.697764
vt 0.547402 0.549149
vt 0.561802 0.052236
vt 0.559315 0.549149
vt 0.575501 0.200851
vt 0.573014 0.697764
vt 0.573014 0.549149
vt 0.550303 0.200851
vt 0.556411 0.549149
vt 0.555527 0.200851
vt 0.561635 0.549149
vt 0.553319 0.052236
vt 0.559427 0.549149
vt 0.562292 0.052236
vt 0.585686 0.697764
vt 0.428355 0.410591
vt 0.347617 0.469251
vt 0.250000 0.490000
vt 0.152383 0.469251
vt 0.071645 0.410591
vt 0.021746 0.324164
vt 0.042154 0.130000
vt 0.108932 0.055836
vt 0.200101 0.015245
vt 0.391068 0.055836
vt 0.457846 0.130000
vt 0.488685 0.224913
vt 0.000000 1.000000
vt 0.652383 0.469251
vt 0.750000 0.490000
vt 0.847617 0.469251
vt 0.928355 0.410591
vt 0.978254 0.324164
vt 0.988685 0.224913
vt 0.891068 0.055836
vt 0.799899 0.015245
vt 0.700101 0.015245
vt 0.542154 0.130000
vt 0.511315 0.224913
vt 0.521746 0.324164
s 1
usemtl Wood_Alt
f 2/1/1 3/2/2 1/3/3
f 3/2/2 8/4/4 7/5/5
f 8/4/4 5/6/6 7/5/5
f 6/7/7 1/8/3 5/6/6
f 7/5/5 1/9/3 3/10/2
f 4/11/8 6/7/7 8/4/4
s 0
f 183/3/69 186/213/69 185/2/69
f 186/213/22 189/5/22 185/2/22
f 190/4/70 187/6/70 189/5/70
f 188/7/12 183/8/12 187/6/12
f 189/5/71 183/9/71 185/10/71
f 186/11/72 188/7/72 190/4/72
f 193/2/69 192/1/69 191/3/69
f 197/5/12 194/213/12 193/2/12
f 197/5/70 196/7/70 198/4/70
f 191/8/22 196/7/22 195/6/22
f 191/9/71 197/5/71 193/10/71
f 198/4/72 192/214/72 194/11/72
f 200/1/73 201/2/73 199/3/73
f 201/2/22 206/4/22 205/5/22
f 206/4/74 203/6/74 205/5/74
f 204/7/12 199/8/12 203/6/12
f 205/5/75 199/9/75 201/10/75
f 202/11/76 204/7/76 206/4/76
f 209/2/73 208/1/73 207/3/73
f 209/2/12 214/4/12 210/213/12
f 213/5/74 212/7/74 214/4/74
f 207/8/22 212/7/22 211/6/22
f 207/9/75 213/5/75 209/10/75
f 212/7/76 210/11/76 214/4/76
s 1
f 2/1/1 4/213/8 3/2/2
f 3/2/2 4/213/8 8/4/4
f 8/4/4 6/7/7 5/6/6
f 6/7/7 2/215/1 1/8/3
f 7/5/5 5/6/6 1/9/3
f 4/11/8 2/214/1 6/7/7
s 0
f 183/3/69 184/1/69 186/213/69
f 186/213/22 190/4/22 189/5/22
f 190/4/70 188/7/70 187/6/70
f 188/7/12 184/215/12 183/8/12
f 189/5/71 187/6/71 183/9/71
f 186/11/72 184/214/72 188/7/72
f 193/2/69 194/213/69 192/1/69
f 197/5/12 198/4/12 194/213/12
f 197/5/70 195/6/70 196/7/70
f 191/8/22 192/215/22 196/7/22
f 191/9/71 195/6/71 197/5/71
f 198/4/72 196/7/72 192/214/72
f 200/1/73 202/213/73 201/2/73
f 201/2/22 202/213/22 206/4/22
f 206/4/74 204/7/74 203/6/74
f 204/7/12 200/215/12 199/8/12
f 205/5/75 203/6/75 199/9/75
f 202/11/76 200/214/76 204/7/76
f 209/2/73 210/213/73 208/1/73
f 209/2/12 213/5/12 214/4/12
f 213/5/74 211/6/74 212/7/74
f 207/8/22 208/215/22 212/7/22
f 207/9/75 211/6/75 213/5/75
f 212/7/76 208/214/76 210/11/76
usemtl Wood
f 18/12/9 11/2/9 17/13/9
f 39/14/10 15/5/10 42/15/10
f 19/16/11 14/7/11 13/6/11
f 46/17/12 9/8/12 49/18/12
f 44/19/13 13/6/13 40/20/13
f 18/21/14 46/22/14 50/23/14
f 12/11/14 50/23/14 48/24/14
f 15/5/15 44/19/15 42/25/15
f 16/4/16 19/16/16 15/5/16
f 10/1/9 17/13/9 9/3/9
f 21/26/17 28/27/17 27/28/17
f 25/29/18 106/30/18 22/31/18
f 32/32/19 127/33/19 126/34/19
f 116/35/19 128/36/19 117/37/19
f 108/38/20 118/39/20 105/40/20
f 24/41/21 107/42/21 25/29/21
f 120/43/19 125/44/19 116/45/19
f 34/46/19 126/34/19 130/47/19
f 110/48/20 115/49/20 108/50/20
f 26/51/17 29/52/17 28/27/17
f 31/53/12 132/54/12 121/55/12
f 21/56/22 87/57/22 97/58/22
f 76/59/22 27/60/22 66/61/22
f 28/27/23 38/62/23 37/63/23
f 27/28/23 37/63/23 36/64/23
f 75/65/24 90/66/24 85/67/24
f 86/68/24 100/69/24 96/70/24
f 22/31/25 99/71/25 25/29/25
f 79/72/24 90/66/24 78/73/24
f 24/41/25 99/74/25 102/75/25
f 92/76/24 100/77/24 89/78/24
f 94/79/12 80/80/12 23/81/12
f 31/53/12 138/82/12 137/83/12
f 34/46/26 140/84/26 32/32/26
f 43/85/27 139/86/27 136/87/27
f 32/32/26 142/88/26 30/89/26
f 41/90/27 141/91/27 139/86/27
f 33/92/28 26/51/28 21/26/28
f 35/93/28 23/94/28 26/51/28
f 33/95/22 114/96/22 123/97/22
f 36/64/29 47/98/29 45/99/29
f 37/63/29 49/100/29 47/98/29
f 55/101/22 36/102/22 48/103/22
f 52/104/30 68/105/30 63/106/30
f 67/107/31 77/108/31 65/109/31
f 57/110/30 68/105/30 56/111/30
f 67/107/31 83/112/31 82/113/31
f 38/114/12 81/115/12 84/116/12
f 16/4/32 41/90/32 20/117/32
f 41/90/33 14/7/33 20/117/33
f 13/6/34 43/118/34 40/119/34
f 42/25/35 35/93/35 33/92/35
f 44/19/35 31/120/35 35/93/35
f 33/95/22 143/121/22 144/122/22
f 11/2/22 48/103/22 45/123/22
f 47/98/36 9/9/36 17/124/36
f 45/99/36 17/124/36 11/10/36
f 48/24/37 60/125/37 54/126/37
f 50/23/37 61/127/37 60/125/37
f 62/128/12 46/17/12 38/114/12
f 62/129/38 54/130/38 60/131/38
f 57/132/39 56/133/39 51/134/39
f 53/135/40 58/136/40 51/137/40
f 71/129/38 63/138/38 68/139/38
f 67/140/39 64/134/39 72/141/39
f 64/137/40 71/142/40 72/141/40
f 76/143/38 82/144/38 83/145/38
f 78/146/41 74/134/41 80/141/41
f 73/147/40 81/148/40 74/137/40
f 94/129/42 85/149/42 90/150/42
f 92/151/43 89/152/43 88/134/43
f 88/137/40 94/142/40 93/141/40
f 97/143/44 100/153/44 101/154/44
f 99/155/45 98/134/45 103/141/45
f 98/137/40 104/142/40 103/141/40
f 113/143/46 107/156/46 109/157/46
f 110/158/47 108/159/47 114/134/47
f 111/142/40 114/137/40 113/160/40
f 124/143/48 115/161/48 119/162/48
f 120/163/49 116/164/49 123/134/49
f 122/142/40 123/137/40 124/160/40
f 128/165/50 125/166/50 132/129/50
f 130/167/39 126/168/39 133/134/39
f 132/142/40 133/137/40 134/160/40
f 137/129/38 142/169/38 140/170/38
f 138/141/39 139/171/39 141/172/39
f 137/142/40 144/137/40 143/160/40
f 18/12/9 12/213/9 11/2/9
f 39/14/77 16/4/77 15/5/77
f 19/16/11 20/117/11 14/7/11
f 46/17/12 10/215/12 9/8/12
f 44/19/78 19/16/78 13/6/78
f 18/21/14 10/214/14 46/22/14
f 12/11/14 18/21/14 50/23/14
f 15/5/15 19/16/15 44/19/15
f 16/4/16 20/117/16 19/16/16
f 10/1/9 18/12/9 17/13/9
f 21/26/17 26/51/17 28/27/17
f 25/29/18 107/216/18 106/30/18
f 32/32/19 30/89/19 127/33/19
f 116/35/19 125/217/19 128/36/19
f 108/38/20 115/218/20 118/39/20
f 24/41/19 109/219/19 107/42/19
f 120/43/19 129/220/19 125/44/19
f 34/46/19 32/32/19 126/34/19
f 110/48/20 119/221/20 115/49/20
f 26/51/17 23/94/17 29/52/17
f 122/222/12 119/223/12 110/224/12
f 122/222/12 110/224/12 112/225/12
f 129/226/12 120/227/12 121/55/12
f 121/55/12 122/222/12 112/225/12
f 111/228/12 109/229/12 24/230/12
f 111/228/12 24/230/12 23/81/12
f 31/53/12 34/231/12 130/232/12
f 31/53/12 130/232/12 131/233/12
f 111/228/12 23/81/12 31/53/12
f 112/225/12 111/228/12 31/53/12
f 31/53/12 131/233/12 132/54/12
f 132/54/12 129/226/12 121/55/12
f 121/55/12 112/225/12 31/53/12
f 98/234/22 95/235/22 22/236/22
f 21/56/22 27/60/22 73/237/22
f 74/238/22 75/239/22 85/240/22
f 21/56/22 73/237/22 74/238/22
f 98/234/22 22/236/22 21/56/22
f 86/241/22 96/242/22 97/58/22
f 97/58/22 98/234/22 21/56/22
f 74/238/22 85/240/22 87/57/22
f 88/243/22 86/241/22 97/58/22
f 21/56/22 74/238/22 87/57/22
f 87/57/22 88/243/22 97/58/22
f 76/59/22 73/237/22 27/60/22
f 27/60/22 36/102/22 53/244/22
f 51/245/22 52/246/22 63/247/22
f 27/60/22 53/244/22 51/245/22
f 65/248/22 77/249/22 76/59/22
f 51/245/22 63/247/22 66/61/22
f 64/250/22 65/248/22 76/59/22
f 27/60/22 51/245/22 66/61/22
f 66/61/22 64/250/22 76/59/22
f 28/27/23 29/52/23 38/62/23
f 27/28/23 28/27/23 37/63/23
f 75/65/24 78/251/24 90/66/24
f 86/68/24 89/252/24 100/69/24
f 22/31/25 95/253/25 99/71/25
f 79/72/24 91/254/24 90/66/24
f 24/41/25 25/29/25 99/74/25
f 92/76/24 101/255/24 100/77/24
f 104/256/12 101/257/12 92/258/12
f 104/256/12 92/258/12 93/259/12
f 24/230/12 102/260/12 103/261/12
f 104/256/12 93/259/12 94/79/12
f 23/81/12 24/230/12 103/261/12
f 23/81/12 103/261/12 104/256/12
f 81/115/12 29/262/12 23/81/12
f 91/263/12 79/264/12 80/80/12
f 80/80/12 81/115/12 23/81/12
f 23/81/12 104/256/12 94/79/12
f 94/79/12 91/263/12 80/80/12
f 135/265/12 34/231/12 31/53/12
f 31/53/12 40/119/12 43/118/12
f 43/118/12 136/266/12 138/82/12
f 137/83/12 135/265/12 31/53/12
f 31/53/12 43/118/12 138/82/12
f 34/46/26 135/267/26 140/84/26
f 43/85/27 41/90/27 139/86/27
f 32/32/26 140/268/26 142/88/26
f 41/90/27 39/269/27 141/91/27
f 33/92/28 35/93/28 26/51/28
f 35/93/28 31/120/28 23/94/28
f 133/270/22 127/271/22 30/272/22
f 21/56/22 22/236/22 106/273/22
f 21/56/22 106/273/22 113/274/22
f 133/270/22 30/272/22 33/95/22
f 117/275/22 128/276/22 134/277/22
f 134/277/22 133/270/22 33/95/22
f 33/95/22 21/56/22 113/274/22
f 114/96/22 105/278/22 118/279/22
f 33/95/22 113/274/22 114/96/22
f 123/97/22 117/275/22 134/277/22
f 114/96/22 118/279/22 124/280/22
f 123/97/22 134/277/22 33/95/22
f 114/96/22 124/280/22 123/97/22
f 36/64/29 37/63/29 47/98/29
f 37/63/29 38/62/29 49/100/29
f 55/101/22 53/244/22 36/102/22
f 36/102/22 45/123/22 48/103/22
f 48/103/22 54/281/22 55/101/22
f 52/104/30 56/111/30 68/105/30
f 67/107/31 82/113/31 77/108/31
f 57/110/30 69/282/30 68/105/30
f 67/107/31 70/283/31 83/112/31
f 71/284/12 69/285/12 57/286/12
f 59/287/12 58/288/12 38/114/12
f 71/284/12 57/286/12 59/287/12
f 83/289/12 70/290/12 72/291/12
f 71/284/12 59/287/12 38/114/12
f 84/116/12 83/289/12 72/291/12
f 72/291/12 71/284/12 38/114/12
f 38/114/12 29/262/12 81/115/12
f 84/116/12 72/291/12 38/114/12
f 16/4/32 39/269/32 41/90/32
f 41/90/79 43/85/79 14/7/79
f 13/6/80 14/7/80 43/118/80
f 42/25/35 44/19/35 35/93/35
f 44/19/35 40/20/35 31/120/35
f 144/122/22 141/292/22 39/14/22
f 39/14/22 42/15/22 33/95/22
f 33/95/22 30/272/22 142/293/22
f 33/95/22 142/293/22 143/121/22
f 144/122/22 39/14/22 33/95/22
f 11/2/22 12/213/22 48/103/22
f 47/98/36 49/100/36 9/9/36
f 45/99/36 47/98/36 17/124/36
f 48/24/37 50/23/37 60/125/37
f 50/23/37 46/22/37 61/127/37
f 62/128/12 61/294/12 46/17/12
f 46/17/12 49/18/12 38/114/12
f 38/114/12 58/288/12 62/128/12
f 60/131/38 61/295/38 62/129/38
f 62/129/38 55/143/38 54/130/38
f 51/134/39 59/141/39 57/132/39
f 56/133/39 52/296/39 51/134/39
f 53/135/40 55/160/40 62/142/40
f 58/136/40 59/141/40 51/137/40
f 53/135/40 62/142/40 58/136/40
f 68/139/38 69/297/38 71/129/38
f 71/129/38 66/143/38 63/138/38
f 72/141/39 70/298/39 67/140/39
f 67/140/39 65/299/39 64/134/39
f 64/137/40 66/160/40 71/142/40
f 83/145/38 84/129/38 76/143/38
f 76/143/38 77/300/38 82/144/38
f 80/141/41 79/301/41 78/146/41
f 78/146/41 75/302/41 74/134/41
f 73/147/40 76/160/40 84/142/40
f 81/148/40 80/141/40 74/137/40
f 73/147/40 84/142/40 81/148/40
f 90/150/42 91/303/42 94/129/42
f 94/129/42 87/143/42 85/149/42
f 88/134/43 93/141/43 92/151/43
f 89/152/43 86/304/43 88/134/43
f 88/137/40 87/160/40 94/142/40
f 101/154/44 104/129/44 97/143/44
f 97/143/44 96/305/44 100/153/44
f 103/141/45 102/306/45 99/155/45
f 99/155/45 95/307/45 98/134/45
f 98/137/40 97/160/40 104/142/40
f 109/157/46 111/129/46 113/143/46
f 113/143/46 106/308/46 107/156/46
f 114/134/47 112/141/47 110/158/47
f 108/159/47 105/309/47 114/134/47
f 111/142/40 112/141/40 114/137/40
f 119/162/48 122/129/48 124/143/48
f 124/143/48 118/310/48 115/161/48
f 123/134/49 121/141/49 120/163/49
f 116/164/49 117/311/49 123/134/49
f 122/142/40 121/141/40 123/137/40
f 132/129/50 134/143/50 128/165/50
f 125/166/50 129/312/50 132/129/50
f 133/134/39 131/141/39 130/167/39
f 126/168/39 127/313/39 133/134/39
f 132/142/40 131/141/40 133/137/40
f 140/170/38 135/314/38 137/129/38
f 137/129/38 143/143/38 142/169/38
f 141/172/39 144/134/39 138/141/39
f 138/141/39 136/315/39 139/171/39
f 137/142/40 138/141/40 144/137/40
usemtl Legs
f 146/173/51 147/174/51 145/175/51
f 148/176/52 149/177/52 147/174/52
f 150/178/53 151/179/53 149/177/53
f 152/180/54 153/181/54 151/179/54
f 154/182/55 155/183/55 153/181/55
f 156/184/56 157/185/56 155/183/56
f 158/186/57 159/187/57 157/185/57
f 160/188/12 161/189/12 159/187/12
f 162/190/58 163/191/58 161/189/58
f 164/192/59 165/193/59 163/191/59
f 166/194/60 167/195/60 165/193/60
f 168/196/61 169/197/61 167/195/61
f 170/198/62 171/199/62 169/197/62
f 168/200/40 160/201/40 152/202/40
f 172/203/63 173/204/63 171/199/63
f 174/205/64 145/206/64 173/204/64
f 155/207/65 163/208/65 171/209/65
f 146/173/51 148/176/51 147/174/51
f 148/176/52 150/178/52 149/177/52
f 150/178/53 152/180/53 151/179/53
f 152/180/54 154/182/54 153/181/54
f 154/182/55 156/184/55 155/183/55
f 156/184/56 158/186/56 157/185/56
f 158/186/57 160/188/57 159/187/57
f 160/188/12 162/190/12 161/189/12
f 162/190/58 164/192/58 163/191/58
f 164/192/59 166/194/59 165/193/59
f 166/194/60 168/196/60 167/195/60
f 168/196/61 170/198/61 169/197/61
f 170/198/62 172/203/62 171/199/62
f 150/316/40 148/317/40 146/318/40
f 146/318/40 174/319/40 172/320/40
f 172/320/81 170/321/81 168/200/81
f 168/200/40 166/322/40 164/323/40
f 164/323/40 162/324/40 160/201/40
f 160/201/40 158/325/40 156/326/40
f 156/326/82 154/327/82 152/202/82
f 152/202/40 150/316/40 146/318/40
f 146/318/40 172/320/40 168/200/40
f 168/200/40 164/323/40 160/201/40
f 160/201/40 156/326/40 152/202/40
f 152/202/40 146/318/40 168/200/40
f 172/203/63 174/205/63 173/204/63
f 174/205/64 146/328/64 145/206/64
f 173/329/65 145/330/65 147/331/65
f 147/331/65 149/332/65 151/333/65
f 151/333/65 153/334/65 155/207/65
f 155/207/65 157/335/65 159/336/65
f 159/336/65 161/337/65 163/208/65
f 163/208/65 165/338/65 167/339/65
f 167/339/65 169/340/65 171/209/65
f 171/209/65 173/329/65 147/331/65
f 147/331/65 151/333/65 155/207/65
f 155/207/65 159/336/65 163/208/65
f 163/208/65 167/339/65 171/209/65
f 171/209/65 147/331/65 155/207/65
usemtl Material
f 179/210/22 181/173/22 182/211/22
f 180/212/66 175/210/66 176/212/66
f 181/173/67 176/212/67 178/173/67
f 182/211/68 178/173/68 177/211/68
f 179/210/38 177/211/38 175/210/38
f 179/210/22 180/212/22 181/173/22
f 180/212/66 179/210/66 175/210/66
f 181/173/67 180/212/67 176/212/67
f 182/211/68 181/173/68 178/173/68
f 179/210/38 182/211/38 177/211/38
o Stand
v -5.484603 0.440829 2.988558
v -5.484603 0.777538 2.988558
v -5.484603 0.440829 0.964101
v -5.484603 0.777538 0.964101
v 5.489309 0.440829 2.988558
v 5.489309 0.777538 2.988558
v 5.489309 0.440829 0.964101
v 5.489309 0.777538 0.964101
v 6.290097 0.115467 1.419760
v -0.074858 14.543751 1.419760
v 6.346498 0.140347 1.430630
v -0.018457 14.568631 1.430630
v 6.396095 0.162228 1.461928
v 0.031140 14.590511 1.461928
v 6.432909 0.178467 1.509879
v 0.067954 14.606750 1.509879
v 6.452496 0.187108 1.568700
v 0.087541 14.615392 1.568700
v 6.452496 0.187108 1.631296
v 0.087541 14.615392 1.631296
v 6.432909 0.178467 1.690117
v 0.067954 14.606750 1.690117
v 6.396095 0.162228 1.738068
v 0.031140 14.590511 1.738068
v 6.346498 0.140347 1.769366
v -0.018457 14.568631 1.769366
v 6.290097 0.115467 1.780235
v -0.074858 14.543751 1.780235
v 6.233696 0.090586 1.769366
v -0.131258 14.518869 1.769366
v 6.184099 0.068707 1.738068
v -0.180856 14.496990 1.738068
v 6.147285 0.052465 1.690117
v -0.217669 14.480750 1.690117
v 6.127698 0.043825 1.631296
v -0.237257 14.472109 1.631296
v 6.127698 0.043825 1.568700
v -0.237257 14.472109 1.568700
v 6.147285 0.052465 1.509879
v -0.217669 14.480750 1.509879
v 6.184099 0.068707 1.461928
v -0.180857 14.496990 1.461928
v 6.233696 0.090586 1.430630
v -0.131258 14.518869 1.430630
v 6.290097 0.115467 -1.780240
v -0.074858 14.543751 -1.780240
v 6.346498 0.140347 -1.769370
v -0.018457 14.568631 -1.769370
v 6.396095 0.162228 -1.738072
v 0.031140 14.590511 -1.738072
v 6.432909 0.178467 -1.690121
v 0.067954 14.606750 -1.690121
v 6.452496 0.187108 -1.631300
v 0.087541 14.615392 -1.631300
v 6.452496 0.187108 -1.568704
v 0.087541 14.615392 -1.568704
v 6.432909 0.178467 -1.509884
v 0.067954 14.606750 -1.509884
v 6.396095 0.162228 -1.461932
v 0.031140 14.590511 -1.461932
v 6.346498 0.140347 -1.430634
v -0.018457 14.568631 -1.430634
v 6.290097 0.115467 -1.419765
v -0.074858 14.543751 -1.419765
v 6.233696 0.090586 -1.430634
v -0.131258 14.518869 -1.430634
v 6.184099 0.068707 -1.461932
v -0.180856 14.496990 -1.461932
v 6.147285 0.052465 -1.509884
v -0.217669 14.480750 -1.509884
v 6.127698 0.043825 -1.568704
v -0.237257 14.472109 -1.568704
v 6.127698 0.043825 -1.631300
v -0.237257 14.472109 -1.631300
v 6.147285 0.052465 -1.690121
v -0.217669 14.480750 -1.690121
v 6.184099 0.068707 -1.738072
v -0.180857 14.496990 -1.738072
v 6.233696 0.090586 -1.769370
v -0.131258 14.518869 -1.769370
v -6.290098 0.115467 1.419760
v 0.074857 14.543751 1.419760
v -6.233697 0.090586 1.430630
v 0.131258 14.518870 1.430630
v -6.184099 0.068707 1.461928
v 0.180855 14.496990 1.461928
v -6.147286 0.052466 1.509879
v 0.217669 14.480751 1.509879
v -6.127699 0.043825 1.568700
v 0.237256 14.472110 1.568700
v -6.127699 0.043825 1.631296
v 0.237256 14.472110 1.631296
v -6.147286 0.052466 1.690117
v 0.217669 14.480751 1.690117
v -6.184099 0.068707 1.738068
v 0.180855 14.496990 1.738068
v -6.233697 0.090586 1.769366
v 0.131258 14.518870 1.769366
v -6.290098 0.115467 1.780235
v 0.074857 14.543751 1.780235
v -6.346498 0.140347 1.769366
v 0.018457 14.568632 1.769366
v -6.396096 0.162228 1.738068
v -0.031141 14.590511 1.738068
v -6.432909 0.178467 1.690117
v -0.067954 14.606751 1.690117
v -6.452497 0.187108 1.631296
v -0.087542 14.615393 1.631296
v -6.452497 0.187108 1.568700
v -0.087542 14.615393 1.568700
v -6.432909 0.178467 1.509879
v -0.067954 14.606751 1.509879
v -6.396096 0.162228 1.461928
v -0.031142 14.590511 1.461928
v -6.346498 0.140347 1.430630
v 0.018457 14.568632 1.430630
v -6.290098 0.115467 -1.780240
v 0.074857 14.543751 -1.780240
v -6.233697 0.090586 -1.769370
v 0.131258 14.518870 -1.769370
v -6.184099 0.068707 -1.738072
v 0.180855 14.496990 -1.738072
v -6.147286 0.052466 -1.690121
v 0.217669 14.480751 -1.690121
v -6.127699 0.043825 -1.631300
v 0.237256 14.472110 -1.631300
v -6.127699 0.043825 -1.568704
v 0.237256 14.472110 -1.568704
v -6.147286 0.052466 -1.509884
v 0.217669 14.480751 -1.509884
v -6.184099 0.068707 -1.461932
v 0.180855 14.496990 -1.461932
v -6.233697 0.090586 -1.430634
v 0.131258 14.518870 -1.430634
v -6.290098 0.115467 -1.419765
v 0.074857 14.543751 -1.419765
v -6.346498 0.140347 -1.430634
v 0.018457 14.568632 -1.430634
v -6.396096 0.162228 -1.461932
v -0.031141 14.590511 -1.461932
v -6.432909 0.178467 -1.509884
v -0.067954 14.606751 -1.509884
v -6.452497 0.187108 -1.568704
v -0.087542 14.615393 -1.568704
v -6.452497 0.187108 -1.631300
v -0.087542 14.615393 -1.631300
v -6.432909 0.178467 -1.690121
v -0.067954 14.606751 -1.690121
v -6.396096 0.162228 -1.738072
v -0.031142 14.590511 -1.738072
v -6.346498 0.140347 -1.769370
v 0.018457 14.568632 -1.769370
v -0.164837 14.855979 0.000008
v -0.164837 14.855979 2.299525
v 0.047134 14.864602 0.000008
v 0.047134 14.864602 2.299525
v 0.203117 14.720814 0.000008
v 0.203117 14.720813 2.299525
v 0.211740 14.508842 0.000008
v 0.211740 14.508842 2.299525
v 0.067951 14.352859 0.000008
v 0.067951 14.352859 2.299525
v -0.144019 14.344237 0.000008
v -0.144019 14.344237 2.299525
v -0.300002 14.488026 0.000008
v -0.300002 14.488026 2.299525
v -0.308625 14.699996 0.000008
v -0.308625 14.699996 2.299525
v -0.164837 14.855979 -2.446506
v 0.047134 14.864602 -2.446506
v 0.203117 14.720813 -2.446506
v 0.211740 14.508842 -2.446506
v 0.067951 14.352859 -2.446506
v -0.144019 14.344237 -2.446506
v -0.300002 14.488026 -2.446506
v -0.308625 14.699996 -2.446506
v -0.048443 14.604418 -0.000001
v -0.048443 14.604420 2.299525
v -0.048443 14.604420 -2.446506
v -0.144019 14.344237 2.935187
v 0.067951 14.352859 2.935187
v -0.144019 14.344237 -3.082168
v -0.308625 14.699996 2.935187
v -0.300002 14.488026 2.935187
v -0.048443 14.604420 2.935187
v 0.203117 14.720814 2.935187
v 0.211740 14.508842 2.935187
v 0.047134 14.864602 2.935187
v -0.164837 14.855979 2.935187
v 0.211740 14.508842 -3.082168
v 0.067951 14.352859 -3.082168
v -0.048443 14.604420 -3.082168
v -0.164837 14.855979 -3.082168
v -0.300002 14.488026 -3.082168
v -0.308625 14.699996 -3.082168
v 0.047134 14.864602 -3.082168
v 0.203117 14.720813 -3.082168
v -0.376650 13.710960 2.299525
v -0.376650 13.710960 2.935187
v -0.912292 14.204726 2.935187
v -0.912292 14.204726 2.299525
v 0.351250 13.740570 2.299525
v 0.351250 13.740570 2.935187
v -0.376650 13.710960 -2.446506
v -0.376650 13.710960 -3.082168
v 0.351250 13.740570 -3.082168
v 0.351250 13.740570 -2.446506
v -0.912292 14.204725 -2.446506
v -0.912292 14.204725 -3.082168
v -0.941902 14.932627 2.299525
v -0.941902 14.932627 2.935187
v -0.448136 15.468268 2.935187
v -0.448136 15.468268 2.299525
v 0.845016 14.276212 2.299525
v 0.845016 14.276212 2.935187
v 0.815406 15.004112 2.299525
v 0.815406 15.004112 2.935187
v 0.279765 15.497879 2.935187
v 0.279765 15.497879 2.299525
v 0.845016 14.276212 -2.446506
v 0.845016 14.276212 -3.082168
v 0.815406 15.004112 -3.082168
v 0.815406 15.004112 -2.446506
v -0.941902 14.932627 -2.446506
v -0.941902 14.932627 -3.082168
v -0.448136 15.468268 -2.446506
v -0.448136 15.468268 -3.082168
v 0.279765 15.497878 -3.082168
v 0.279765 15.497878 -2.446506
vn -1.0000 -0.0000 -0.0000
vn -0.0000 -0.0000 -1.0000
vn 1.0000 -0.0000 -0.0000
vn -0.0000 -0.0000 1.0000
vn -0.0000 -1.0000 -0.0000
vn -0.0000 1.0000 -0.0000
vn 0.1589 0.0701 -0.9848
vn 0.4575 0.2018 -0.8660
vn 0.7009 0.3092 -0.6428
vn 0.8598 0.3793 -0.3420
vn 0.9149 0.4036 -0.0000
vn 0.8598 0.3793 0.3420
vn 0.7009 0.3092 0.6428
vn 0.4575 0.2018 0.8660
vn 0.1589 0.0701 0.9848
vn -0.1589 -0.0701 0.9848
vn -0.4575 -0.2018 0.8660
vn -0.7009 -0.3092 0.6428
vn -0.8598 -0.3793 0.3420
vn -0.9149 -0.4036 -0.0000
vn -0.8598 -0.3793 -0.3420
vn -0.7009 -0.3092 -0.6428
vn -0.4036 0.9149 -0.0000
vn -0.4575 -0.2018 -0.8660
vn -0.1589 -0.0701 -0.9848
vn 0.4036 -0.9149 -0.0000
vn 0.1589 -0.0701 -0.9848
vn 0.4575 -0.2018 -0.8660
vn 0.7009 -0.3092 -0.6428
vn 0.8598 -0.3793 -0.3420
vn 0.9149 -0.4036 -0.0000
vn 0.8598 -0.3793 0.3420
vn 0.7009 -0.3092 0.6428
vn 0.4575 -0.2018 0.8660
vn 0.1589 -0.0701 0.9848
vn -0.1589 0.0701 0.9848
vn -0.4575 0.2018 0.8660
vn -0.7009 0.3092 0.6428
vn -0.8597 0.3793 0.3420
vn -0.9149 0.4036 -0.0000
vn -0.8597 0.3793 -0.3420
vn -0.7009 0.3092 -0.6428
vn 0.4036 0.9149 -0.0000
vn -0.4575 0.2018 -0.8660
vn -0.1589 0.0701 -0.9848
vn -0.4036 -0.9149 -0.0000
vn -0.8598 0.3793 0.3420
vn -0.8598 0.3793 -0.3420
vn -0.0406 0.9992 -0.0000
vn 0.6778 0.7353 -0.0000
vn 0.9992 0.0406 -0.0000
vn 0.7353 -0.6778 -0.0000
vn 0.0406 -0.9992 -0.0000
vn -0.6778 -0.7353 -0.0000
vn -0.9992 -0.0406 -0.0000
vn -0.7353 0.6778 -0.0000
vn 0.9076 0.4199 -0.0000
vn -0.4199 0.9076 -0.0000
vn 0.4199 -0.9076 -0.0000
vn -0.9076 -0.4199 -0.0000
vn 0.9387 -0.3448 -0.0000
vn -0.9387 0.3448 -0.0000
vn -0.3448 -0.9387 -0.0000
vn 0.3448 0.9387 -0.0000
vn -0.4036 0.9149 -0.0001
vn 0.4037 -0.9149 -0.0000
vn 0.4036 -0.9150 -0.0000
vn 0.4036 -0.9149 -0.0001
vn 0.4037 -0.9149 -0.0001
vn 0.4036 0.9149 0.0001
vn -0.4036 -0.9149 -0.0001
vn -0.4037 -0.9149 -0.0000
vn -0.4035 -0.9150 -0.0001
vt 0.625000 0.000000
vt 0.375000 0.250000
vt 0.375000 0.000000
vt 0.625000 0.250000
vt 0.375000 0.500000
vt 0.625000 0.500000
vt 0.375000 0.750000
vt 0.625000 0.750000
vt 0.375000 1.000000
vt 0.125000 0.750000
vt 0.125000 0.500000
vt 0.875000 0.500000
vt 1.000000 1.000000
vt 0.944444 0.500000
vt 1.000000 0.500000
vt 0.888889 1.000000
vt 0.888889 0.500000
vt 0.833333 0.500000
vt 0.833333 1.000000
vt 0.777778 0.500000
vt 0.777778 1.000000
vt 0.722222 0.500000
vt 0.722222 1.000000
vt 0.666667 0.500000
vt 0.666667 1.000000
vt 0.611111 0.500000
vt 0.555555 1.000000
vt 0.555555 0.500000
vt 0.500000 1.000000
vt 0.500000 0.500000
vt 0.444444 1.000000
vt 0.444444 0.500000
vt 0.388889 1.000000
vt 0.388889 0.500000
vt 0.333333 0.500000
vt 0.333333 1.000000
vt 0.277778 0.500000
vt 0.277778 1.000000
vt 0.222222 0.500000
vt 0.166666 1.000000
vt 0.166666 0.500000
vt 0.111111 1.000000
vt 0.111111 0.500000
vt 0.095731 0.433851
vt 0.332085 0.024474
vt 0.486354 0.291676
vt 0.055555 0.500000
vt -0.000000 1.000000
vt -0.000000 0.500000
vt 0.957846 0.370000
vt 0.595731 0.066149
vt 0.542154 0.370000
vt 0.611111 1.000000
vt 0.222222 1.000000
vt 0.055555 1.000000
vt 0.944444 1.000000
vt 0.750000 1.000000
vt 0.750000 0.500000
vt 0.625000 1.000000
vt 0.500000 0.500000
vt 0.500000 1.000000
vt 0.250000 0.500000
vt 0.250000 1.000000
vt 0.125000 1.000000
vt 0.000000 0.500000
vt 0.919706 0.419706
vt 0.919706 0.080294
vt 0.750000 0.010000
vt 0.875000 1.000000
vt 0.750000 0.490000
vt 0.580294 0.080294
vt 0.510000 0.250000
vt 0.250000 0.250000
vt 0.080294 0.080294
vt 0.250000 0.010000
vt 0.250000 0.250000
vt 0.010000 0.250000
vt 0.080294 0.419706
vt 0.250000 0.490000
vt 0.419706 0.080294
vt 0.490000 0.250000
vt 0.419706 0.419706
vt 0.875000 0.750000
vt 0.404269 0.433851
vt 0.332085 0.475526
vt 0.167915 0.475526
vt 0.042154 0.370000
vt 0.013646 0.291676
vt 0.013646 0.208324
vt 0.042154 0.130000
vt 0.095731 0.066149
vt 0.167915 0.024474
vt 0.404269 0.066149
vt 0.457846 0.130000
vt 0.486354 0.208324
vt 0.457846 0.370000
vt 0.667915 0.475526
vt 0.832085 0.475526
vt 0.904269 0.433851
vt 0.986354 0.291676
vt 0.986354 0.208324
vt 0.957846 0.130000
vt 0.904269 0.066149
vt 0.832085 0.024474
vt 0.667915 0.024474
vt 0.542154 0.130000
vt 0.513646 0.208324
vt 0.513646 0.291676
vt 0.595731 0.433851
vt 0.000000 1.000000
vt 0.990000 0.250000
vt 0.580294 0.419706
s 0
usemtl Wood_Alt
f 216/341/83 217/342/83 215/343/83
f 218/344/84 221/345/84 217/342/84
f 222/346/85 219/347/85 221/345/85
f 220/348/86 215/349/86 219/347/86
f 221/345/87 215/350/87 217/351/87
f 218/352/88 220/348/88 222/346/88
f 216/341/83 218/344/83 217/342/83
f 218/344/84 222/346/84 221/345/84
f 222/346/85 220/348/85 219/347/85
f 220/348/86 216/399/86 215/349/86
f 221/345/87 219/347/87 215/350/87
f 218/352/88 216/423/88 220/348/88
usemtl Legs
f 224/353/89 225/354/89 223/355/89
f 225/354/90 228/356/90 227/357/90
f 228/356/91 229/358/91 227/357/91
f 230/359/92 231/360/92 229/358/92
f 232/361/93 233/362/93 231/360/93
f 234/363/94 235/364/94 233/362/94
f 236/365/95 237/366/95 235/364/95
f 237/366/96 240/367/96 239/368/96
f 239/368/97 242/369/97 241/370/97
f 241/370/98 244/371/98 243/372/98
f 243/372/99 246/373/99 245/374/99
f 246/373/100 247/375/100 245/374/100
f 248/376/101 249/377/101 247/375/101
f 250/378/102 251/379/102 249/377/102
f 251/379/103 254/380/103 253/381/103
f 253/381/104 256/382/104 255/383/104
f 256/384/105 240/385/105 232/386/105
f 256/382/106 257/387/106 255/383/106
f 257/387/107 224/388/107 223/389/107
f 229/390/108 245/391/108 253/392/108
f 260/353/89 261/354/89 259/355/89
f 261/354/90 264/356/90 263/357/90
f 263/357/91 266/359/91 265/358/91
f 266/359/92 267/360/92 265/358/92
f 268/361/93 269/362/93 267/360/93
f 269/362/94 272/365/94 271/364/94
f 272/365/95 273/366/95 271/364/95
f 274/393/96 275/368/96 273/366/96
f 275/368/97 278/369/97 277/370/97
f 278/369/98 279/372/98 277/370/98
f 279/372/99 282/373/99 281/374/99
f 282/373/100 283/375/100 281/374/100
f 283/375/101 286/378/101 285/377/101
f 286/378/102 287/379/102 285/377/102
f 288/394/103 289/381/103 287/379/103
f 290/380/104 291/383/104 289/381/104
f 292/384/105 276/385/105 268/386/105
f 291/383/106 294/395/106 293/387/106
f 294/395/107 259/389/107 293/387/107
f 265/390/108 281/391/108 289/392/108
f 296/353/109 297/354/109 295/355/109
f 298/396/110 299/357/110 297/354/110
f 300/356/111 301/358/111 299/357/111
f 302/359/112 303/360/112 301/358/112
f 304/361/113 305/362/113 303/360/113
f 306/363/114 307/364/114 305/362/114
f 307/364/115 310/393/115 309/366/115
f 310/393/116 311/368/116 309/366/116
f 312/367/117 313/370/117 311/368/117
f 314/369/118 315/372/118 313/370/118
f 315/372/119 318/373/119 317/374/119
f 317/374/120 320/376/120 319/375/120
f 319/375/121 322/378/121 321/377/121
f 322/378/122 323/379/122 321/377/122
f 323/379/123 326/380/123 325/381/123
f 325/381/124 328/382/124 327/383/124
f 328/384/125 312/385/125 304/386/125
f 327/383/126 330/395/126 329/387/126
f 329/387/127 296/388/127 295/389/127
f 301/390/128 317/391/128 325/392/128
f 331/355/109 334/396/109 333/354/109
f 333/354/110 336/356/110 335/357/110
f 335/357/111 338/359/111 337/358/111
f 337/358/112 340/361/112 339/360/112
f 340/361/113 341/362/113 339/360/113
f 341/362/114 344/365/114 343/364/114
f 344/365/115 345/366/115 343/364/115
f 346/393/116 347/368/116 345/366/116
f 348/367/117 349/370/117 347/368/117
f 350/369/118 351/372/118 349/370/118
f 351/372/119 354/373/119 353/374/119
f 354/373/120 355/375/120 353/374/120
f 356/376/129 357/377/129 355/375/129
f 358/378/122 359/379/122 357/377/122
f 359/379/130 362/380/130 361/381/130
f 361/381/124 364/382/124 363/383/124
f 364/384/125 348/385/125 340/386/125
f 363/383/126 366/395/126 365/387/126
f 365/387/127 332/388/127 331/389/127
f 337/390/128 353/391/128 361/392/128
f 224/353/89 226/396/89 225/354/89
f 225/354/90 226/396/90 228/356/90
f 228/356/91 230/359/91 229/358/91
f 230/359/92 232/361/92 231/360/92
f 232/361/93 234/363/93 233/362/93
f 234/363/94 236/365/94 235/364/94
f 236/365/95 238/393/95 237/366/95
f 237/366/96 238/393/96 240/367/96
f 239/368/97 240/367/97 242/369/97
f 241/370/98 242/369/98 244/371/98
f 243/372/99 244/371/99 246/373/99
f 246/373/100 248/376/100 247/375/100
f 248/376/101 250/378/101 249/377/101
f 250/378/102 252/394/102 251/379/102
f 251/379/103 252/394/103 254/380/103
f 253/381/104 254/380/104 256/382/104
f 228/424/105 226/425/105 224/419/105
f 224/419/147 258/426/147 256/384/147
f 256/384/105 254/427/105 252/428/105
f 252/428/105 250/429/105 248/430/105
f 248/430/105 246/431/105 244/432/105
f 244/432/105 242/415/105 240/385/105
f 240/385/105 238/433/105 236/434/105
f 236/434/105 234/435/105 232/386/105
f 232/386/105 230/436/105 228/424/105
f 228/424/105 224/419/105 256/384/105
f 256/384/105 252/428/105 248/430/105
f 248/430/105 244/432/105 240/385/105
f 240/385/105 236/434/105 232/386/105
f 232/386/105 228/424/105 256/384/105
f 256/384/105 248/430/105 240/385/105
f 256/382/106 258/395/106 257/387/106
f 257/387/107 258/395/107 224/388/107
f 257/437/108 223/410/108 225/438/108
f 225/438/148 227/439/148 229/390/148
f 229/390/148 231/440/148 233/441/148
f 233/441/148 235/442/148 237/443/148
f 237/443/149 239/444/149 241/408/149
f 241/408/150 243/445/150 245/391/150
f 245/391/151 247/446/151 249/447/151
f 249/447/148 251/448/148 253/392/148
f 253/392/108 255/449/108 257/437/108
f 257/437/108 225/438/108 229/390/108
f 229/390/108 233/441/108 237/443/108
f 237/443/108 241/408/108 245/391/108
f 245/391/108 249/447/108 253/392/108
f 253/392/108 257/437/108 229/390/108
f 229/390/108 237/443/108 245/391/108
f 260/353/89 262/396/89 261/354/89
f 261/354/90 262/396/90 264/356/90
f 263/357/91 264/356/91 266/359/91
f 266/359/92 268/361/92 267/360/92
f 268/361/93 270/363/93 269/362/93
f 269/362/94 270/363/94 272/365/94
f 272/365/95 274/393/95 273/366/95
f 274/393/96 276/367/96 275/368/96
f 275/368/97 276/367/97 278/369/97
f 278/369/98 280/371/98 279/372/98
f 279/372/99 280/371/99 282/373/99
f 282/373/100 284/376/100 283/375/100
f 283/375/101 284/376/101 286/378/101
f 286/378/102 288/394/102 287/379/102
f 288/394/103 290/380/103 289/381/103
f 290/380/104 292/382/104 291/383/104
f 264/424/105 262/425/105 260/419/105
f 260/419/147 294/426/147 292/384/147
f 292/384/105 290/427/105 288/428/105
f 288/428/105 286/429/105 284/430/105
f 284/430/105 282/431/105 280/432/105
f 280/432/105 278/415/105 276/385/105
f 276/385/105 274/433/105 272/434/105
f 272/434/105 270/435/105 268/386/105
f 268/386/105 266/436/105 264/424/105
f 264/424/105 260/419/105 292/384/105
f 292/384/105 288/428/105 284/430/105
f 284/430/105 280/432/105 276/385/105
f 276/385/105 272/434/105 268/386/105
f 268/386/105 264/424/105 292/384/105
f 292/384/105 284/430/105 276/385/105
f 291/383/106 292/382/106 294/395/106
f 294/395/107 260/388/107 259/389/107
f 293/437/108 259/410/108 261/438/108
f 261/438/148 263/439/148 265/390/148
f 265/390/148 267/440/148 269/441/148
f 269/441/148 271/442/148 273/443/148
f 273/443/108 275/444/108 277/408/108
f 277/408/150 279/445/150 281/391/150
f 281/391/151 283/446/151 285/447/151
f 285/447/148 287/448/148 289/392/148
f 289/392/108 291/449/108 293/437/108
f 293/437/108 261/438/108 265/390/108
f 265/390/108 269/441/108 273/443/108
f 273/443/108 277/408/108 281/391/108
f 281/391/108 285/447/108 289/392/108
f 289/392/108 293/437/108 265/390/108
f 265/390/108 273/443/108 281/391/108
f 296/353/109 298/396/109 297/354/109
f 298/396/110 300/356/110 299/357/110
f 300/356/111 302/359/111 301/358/111
f 302/359/112 304/361/112 303/360/112
f 304/361/113 306/363/113 305/362/113
f 306/363/114 308/365/114 307/364/114
f 307/364/115 308/365/115 310/393/115
f 310/393/116 312/367/116 311/368/116
f 312/367/117 314/369/117 313/370/117
f 314/369/118 316/371/118 315/372/118
f 315/372/119 316/371/119 318/373/119
f 317/374/120 318/373/120 320/376/120
f 319/375/129 320/376/129 322/378/129
f 322/378/122 324/394/122 323/379/122
f 323/379/130 324/394/130 326/380/130
f 325/381/124 326/380/124 328/382/124
f 300/424/125 298/425/125 296/419/125
f 296/419/152 330/426/152 328/384/152
f 328/384/125 326/427/125 324/428/125
f 324/428/125 322/429/125 320/430/125
f 320/430/125 318/431/125 316/432/125
f 316/432/125 314/415/125 312/385/125
f 312/385/125 310/433/125 308/434/125
f 308/434/125 306/435/125 304/386/125
f 304/386/125 302/436/125 300/424/125
f 300/424/125 296/419/125 328/384/125
f 328/384/125 324/428/125 320/430/125
f 320/430/125 316/432/125 312/385/125
f 312/385/125 308/434/125 304/386/125
f 304/386/125 300/424/125 328/384/125
f 328/384/125 320/430/125 312/385/125
f 327/383/126 328/382/126 330/395/126
f 329/387/127 330/395/127 296/388/127
f 329/437/153 295/410/153 297/438/153
f 297/438/128 299/439/128 301/390/128
f 301/390/154 303/440/154 305/441/154
f 305/441/128 307/442/128 309/443/128
f 309/443/128 311/444/128 313/408/128
f 313/408/155 315/445/155 317/391/155
f 317/391/154 319/446/154 321/447/154
f 321/447/154 323/448/154 325/392/154
f 325/392/154 327/449/154 329/437/154
f 329/437/128 297/438/128 301/390/128
f 301/390/154 305/441/154 309/443/154
f 309/443/128 313/408/128 317/391/128
f 317/391/128 321/447/128 325/392/128
f 325/392/128 329/437/128 301/390/128
f 301/390/128 309/443/128 317/391/128
f 331/355/109 332/353/109 334/396/109
f 333/354/110 334/396/110 336/356/110
f 335/357/111 336/356/111 338/359/111
f 337/358/112 338/359/112 340/361/112
f 340/361/113 342/363/113 341/362/113
f 341/362/114 342/363/114 344/365/114
f 344/365/115 346/393/115 345/366/115
f 346/393/116 348/367/116 347/368/116
f 348/367/117 350/369/117 349/370/117
f 350/369/118 352/371/118 351/372/118
f 351/372/119 352/371/119 354/373/119
f 354/373/120 356/376/120 355/375/120
f 356/376/121 358/378/121 357/377/121
f 358/378/122 360/394/122 359/379/122
f 359/379/130 360/394/130 362/380/130
f 361/381/124 362/380/124 364/382/124
f 336/424/125 334/425/125 332/419/125
f 332/419/152 366/426/152 364/384/152
f 364/384/125 362/427/125 360/428/125
f 360/428/125 358/429/125 356/430/125
f 356/430/125 354/431/125 352/432/125
f 352/432/125 350/415/125 348/385/125
f 348/385/125 346/433/125 344/434/125
f 344/434/125 342/435/125 340/386/125
f 340/386/125 338/436/125 336/424/125
f 336/424/125 332/419/125 364/384/125
f 364/384/125 360/428/125 356/430/125
f 356/430/125 352/432/125 348/385/125
f 348/385/125 344/434/125 340/386/125
f 340/386/125 336/424/125 364/384/125
f 364/384/125 356/430/125 348/385/125
f 363/383/126 364/382/126 366/395/126
f 365/387/127 366/395/127 332/388/127
f 365/437/153 331/410/153 333/438/153
f 333/438/128 335/439/128 337/390/128
f 337/390/154 339/440/154 341/441/154
f 341/441/128 343/442/128 345/443/128
f 345/443/128 347/444/128 349/408/128
f 349/408/155 351/445/155 353/391/155
f 353/391/154 355/446/154 357/447/154
f 357/447/154 359/448/154 361/392/154
f 361/392/154 363/449/154 365/437/154
f 365/437/128 333/438/128 337/390/128
f 337/390/154 341/441/154 345/443/154
f 345/443/128 349/408/128 353/391/128
f 353/391/128 357/447/128 361/392/128
f 361/392/128 365/437/128 337/390/128
f 337/390/128 345/443/128 353/391/128
usemtl Wood
f 368/353/131 369/352/131 367/355/131
f 369/352/132 372/397/132 371/398/132
f 372/397/133 373/346/133 371/398/133
f 374/399/134 375/400/134 373/346/134
f 376/401/135 377/345/135 375/400/135
f 378/349/136 379/402/136 377/345/136
f 380/403/137 381/351/137 379/402/137
f 382/404/138 367/405/138 381/351/138
f 369/406/84 373/407/84 375/408/84
f 367/355/131 384/409/131 383/353/131
f 371/398/132 384/409/132 369/352/132
f 373/346/133 385/397/133 371/398/133
f 375/400/134 386/399/134 373/346/134
f 377/345/135 387/401/135 375/400/135
f 379/402/136 388/349/136 377/345/136
f 381/351/137 389/403/137 379/402/137
f 367/405/138 390/404/138 381/351/138
f 367/410/84 377/411/84 379/412/84
f 399/413/86 394/414/86 395/415/86
f 399/413/139 376/415/139 392/413/139
f 406/416/84 396/414/84 408/417/84
f 406/416/140 389/417/140 393/416/140
f 397/418/86 399/413/86 403/419/86
f 399/413/141 380/417/141 392/413/141
f 403/419/139 392/413/139 368/419/139
f 399/413/86 401/420/86 400/421/86
f 399/413/140 372/421/140 392/413/140
f 402/422/86 399/413/86 400/421/86
f 404/420/84 406/416/84 411/421/84
f 406/416/142 387/415/142 393/416/142
f 411/421/140 393/416/140 385/421/140
f 406/416/84 409/418/84 407/419/84
f 406/416/139 383/419/139 393/416/139
f 410/422/84 406/416/84 407/419/84
f 413/414/136 415/417/136 412/414/136
f 394/414/143 412/414/143 378/414/143
f 414/417/86 394/414/86 398/417/86
f 380/417/140 414/417/140 398/417/140
f 412/414/84 380/417/84 378/414/84
f 417/415/135 412/414/135 416/415/135
f 417/415/139 376/415/139 395/415/139
f 413/414/86 395/415/86 394/414/86
f 416/415/84 378/414/84 376/415/84
f 419/414/135 421/415/135 418/414/135
f 396/414/144 418/414/144 388/414/144
f 420/415/84 396/414/84 405/415/84
f 421/415/139 405/415/139 387/415/139
f 418/414/86 387/415/86 388/414/86
f 423/417/136 418/414/136 422/417/136
f 423/417/140 389/417/140 408/417/140
f 419/414/84 408/417/84 396/414/84
f 422/417/86 388/414/86 389/417/86
f 425/418/138 427/419/138 424/418/138
f 425/418/145 382/418/145 397/418/145
f 426/419/86 397/418/86 403/419/86
f 427/419/139 403/419/139 368/419/139
f 424/418/84 368/419/84 382/418/84
f 414/417/137 424/418/137 415/417/137
f 425/418/86 398/417/86 397/418/86
f 415/417/84 382/418/84 380/417/84
f 429/420/134 416/415/134 428/420/134
f 429/420/146 374/420/146 401/420/146
f 417/415/86 401/420/86 395/415/86
f 428/420/84 376/415/84 374/420/84
f 431/421/133 428/420/133 430/421/133
f 400/421/140 430/421/140 372/421/140
f 401/420/86 431/421/86 400/421/86
f 430/421/84 374/420/84 372/421/84
f 426/419/131 433/422/131 427/419/131
f 432/422/86 403/419/86 402/422/86
f 370/422/143 432/422/143 402/422/143
f 368/419/84 433/422/84 370/422/84
f 432/422/132 430/421/132 433/422/132
f 431/421/86 402/422/86 400/421/86
f 433/422/84 372/421/84 370/422/84
f 435/420/133 437/421/133 434/420/133
f 435/420/145 386/420/145 404/420/145
f 411/421/84 435/420/84 404/420/84
f 437/421/140 411/421/140 385/421/140
f 434/420/86 385/421/86 386/420/86
f 420/415/134 434/420/134 421/415/134
f 435/420/84 405/415/84 404/420/84
f 421/415/86 386/420/86 387/415/86
f 439/418/137 422/417/137 438/418/137
f 390/418/146 439/418/146 438/418/146
f 423/417/84 409/418/84 408/417/84
f 438/418/86 389/417/86 390/418/86
f 441/419/138 438/418/138 440/419/138
f 441/419/139 383/419/139 407/419/139
f 439/418/84 407/419/84 409/418/84
f 440/419/86 390/418/86 383/419/86
f 436/421/132 443/422/132 437/421/132
f 442/422/84 411/421/84 410/422/84
f 443/422/144 410/422/144 384/422/144
f 437/421/86 384/422/86 385/421/86
f 442/422/131 440/419/131 443/422/131
f 441/419/84 410/422/84 407/419/84
f 443/422/86 383/419/86 384/422/86
f 368/353/131 370/409/131 369/352/131
f 369/352/132 370/409/132 372/397/132
f 372/397/133 374/399/133 373/346/133
f 374/399/134 376/401/134 375/400/134
f 376/401/135 378/349/135 377/345/135
f 378/349/136 380/403/136 379/402/136
f 380/403/137 382/404/137 381/351/137
f 382/404/138 368/450/138 367/405/138
f 375/408/84 367/410/84 369/406/84
f 369/406/84 371/451/84 373/407/84
f 367/355/131 369/352/131 384/409/131
f 371/398/132 385/397/132 384/409/132
f 373/346/133 386/399/133 385/397/133
f 375/400/134 387/401/134 386/399/134
f 377/345/135 388/349/135 387/401/135
f 379/402/136 389/403/136 388/349/136
f 381/351/137 390/404/137 389/403/137
f 367/405/138 383/450/138 390/404/138
f 379/412/84 381/452/84 367/410/84
f 367/410/84 375/408/84 377/411/84
f 399/413/86 398/417/86 394/414/86
f 399/413/139 395/415/139 376/415/139
f 406/416/84 405/415/84 396/414/84
f 406/416/140 408/417/140 389/417/140
f 397/418/86 398/417/86 399/413/86
f 399/413/141 398/417/141 380/417/141
f 403/419/139 399/413/139 392/413/139
f 399/413/86 395/415/86 401/420/86
f 399/413/140 400/421/140 372/421/140
f 402/422/86 403/419/86 399/413/86
f 404/420/84 405/415/84 406/416/84
f 406/416/142 405/415/142 387/415/142
f 411/421/140 406/416/140 393/416/140
f 406/416/84 408/417/84 409/418/84
f 406/416/139 407/419/139 383/419/139
f 410/422/84 411/421/84 406/416/84
f 413/414/136 414/417/136 415/417/136
f 394/414/143 413/414/143 412/414/143
f 414/417/86 413/414/86 394/414/86
f 380/417/140 415/417/140 414/417/140
f 412/414/84 415/417/84 380/417/84
f 417/415/135 413/414/135 412/414/135
f 417/415/139 416/415/139 376/415/139
f 413/414/86 417/415/86 395/415/86
f 416/415/84 412/414/84 378/414/84
f 419/414/135 420/415/135 421/415/135
f 396/414/144 419/414/144 418/414/144
f 420/415/84 419/414/84 396/414/84
f 421/415/139 420/415/139 405/415/139
f 418/414/86 421/415/86 387/415/86
f 423/417/136 419/414/136 418/414/136
f 423/417/140 422/417/140 389/417/140
f 419/414/84 423/417/84 408/417/84
f 422/417/86 418/414/86 388/414/86
f 425/418/138 426/419/138 427/419/138
f 425/418/145 424/418/145 382/418/145
f 426/419/86 425/418/86 397/418/86
f 427/419/139 426/419/139 403/419/139
f 424/418/84 427/419/84 368/419/84
f 414/417/137 425/418/137 424/418/137
f 425/418/86 414/417/86 398/417/86
f 415/417/84 424/418/84 382/418/84
f 429/420/134 417/415/134 416/415/134
f 429/420/146 428/420/146 374/420/146
f 417/415/86 429/420/86 401/420/86
f 428/420/84 416/415/84 376/415/84
f 431/421/133 429/420/133 428/420/133
f 400/421/140 431/421/140 430/421/140
f 401/420/86 429/420/86 431/421/86
f 430/421/84 428/420/84 374/420/84
f 426/419/131 432/422/131 433/422/131
f 432/422/86 426/419/86 403/419/86
f 370/422/143 433/422/143 432/422/143
f 368/419/84 427/419/84 433/422/84
f 432/422/132 431/421/132 430/421/132
f 431/421/86 432/422/86 402/422/86
f 433/422/84 430/421/84 372/421/84
f 435/420/133 436/421/133 437/421/133
f 435/420/145 434/420/145 386/420/145
f 411/421/84 436/421/84 435/420/84
f 437/421/140 436/421/140 411/421/140
f 434/420/86 437/421/86 385/421/86
f 420/415/134 435/420/134 434/420/134
f 435/420/84 420/415/84 405/415/84
f 421/415/86 434/420/86 386/420/86
f 439/418/137 423/417/137 422/417/137
f 390/418/146 409/418/146 439/418/146
f 423/417/84 439/418/84 409/418/84
f 438/418/86 422/417/86 389/417/86
f 441/419/138 439/418/138 438/418/138
f 441/419/139 440/419/139 383/419/139
f 439/418/84 441/419/84 407/419/84
f 440/419/86 438/418/86 390/418/86
f 436/421/132 442/422/132 443/422/132
f 442/422/84 436/421/84 411/421/84
f 443/422/144 442/422/144 410/422/144
f 437/421/86 443/422/86 384/422/86
f 442/422/131 441/419/131 440/419/131
f 441/419/84 442/422/84 410/422/84
f 443/422/86 440/419/86 383/419/86
l 391 379
l 371 391
